<svg width="32" height="32" xmlns="http://www.w3.org/2000/svg">

 <g>
  <title>background</title>
  <rect fill="none" id="canvas_background" height="402" width="582" y="-1" x="-1"/>
 </g>
 <g>
  <title>Layer 1</title>
  <g stroke="null" id="svg_4">
   <rect x="1.96759" y="1.96759" stroke="null" id="svg_1" width="28.064819" height="28.064819" fill="none"/>
   <path stroke="null" id="svg_2" d="m23.016205,14.297693l0,-7.432792l-4.899065,-4.897311l-16.149549,0l0,28.064819l21.048615,0l0,-0.051745c3.945738,-0.438513 7.014451,-3.779103 7.016205,-7.841486c-0.001754,-4.064137 -3.070467,-7.405604 -7.016205,-7.841486zm-5.263908,-10.21384l3.146768,3.145891l-3.146768,0l0,-3.145891zm-14.030656,24.194505l0,-24.558471l12.278358,0l0,5.263031l5.262154,0l0,5.314775c-1.536549,0.170143 -2.93979,0.780553 -4.079923,1.702307l-11.706538,0l0,1.754051l10.100704,0c-0.361335,0.540248 -0.65163,1.130486 -0.871763,1.754051l-9.22894,0l0,1.754051l8.822001,0c-0.03245,0.288541 -0.051745,0.579714 -0.051745,0.877026c0,2.481105 1.147149,4.692964 2.937159,6.139179l-13.461466,0zm18.417538,-0.102612c-3.333574,-0.007893 -6.030428,-2.704747 -6.038321,-6.036567c0.007893,-3.333574 2.704747,-6.030428 6.038321,-6.038321c3.33182,0.007893 6.028674,2.704747 6.036567,6.038321c-0.007893,3.33182 -2.704747,6.028674 -6.036567,6.036567zm-2.631077,-15.683849l-14.03241,0l0,1.754051l14.03241,0l0,-1.754051z"/>
   <path stroke="null" id="svg_3" d="m26.524307,23.016205l0,-1.754928l-1.458494,0c-0.055253,-0.185929 -0.127169,-0.362212 -0.214871,-0.531478l1.041029,-1.041029l-1.241868,-1.240991l-1.021735,1.022612c-0.192946,-0.107874 -0.396416,-0.193823 -0.611287,-0.257846l0,-1.458494l-1.754051,0l0,1.457617c-0.200839,0.059638 -0.391153,0.13857 -0.571821,0.236797l-1.000686,-0.999809l-1.240991,1.240991l0.999809,0.999809c-0.098227,0.181544 -0.177159,0.371859 -0.237674,0.572698l-1.457617,0l0,1.754051l1.457617,0c0.064023,0.215748 0.150848,0.420095 0.258723,0.612164l-1.021735,1.019981l1.239237,1.241868l1.041906,-1.041029c0.168389,0.08858 0.345548,0.159619 0.5306,0.214871l0,1.460248l1.755805,0l0,-1.460248c0.200839,-0.059638 0.390276,-0.13857 0.570944,-0.236797l1.062955,1.062955l1.240114,-1.241868l-1.062955,-1.061201c0.09735,-0.180667 0.176282,-0.370982 0.236797,-0.570944l1.460248,0zm-4.386005,0.437636c-0.727054,-0.001754 -1.313784,-0.588484 -1.316415,-1.315538c0.002631,-0.727054 0.589361,-1.313784 1.316415,-1.316415c0.727054,0.002631 1.313784,0.589361 1.315538,1.316415c-0.001754,0.727054 -0.588484,1.313784 -1.315538,1.315538z"/>
  </g>
 </g>
</svg>