<svg width="32" height="32" xmlns="http://www.w3.org/2000/svg">
 <title/>
 <desc/>

 <g>
  <rect fill="none" id="canvas_background" height="402" width="582" y="-1" x="-1"/>
 </g>
 <g>
  <path stroke="null" id="clipboard-edit" d="m25.505398,12.770188l-10.882374,10.895256l0,0l-2.512327,-2.512337l10.888034,-10.889577l2.506667,2.506658l0,0zm0.681403,-0.682203l1.667306,-1.669283c0.376016,-0.37646 0.373239,-0.9884 -0.004628,-1.365236l-1.137594,-1.13447c-0.378581,-0.37753 -0.988545,-0.380471 -1.365892,-0.003066l-1.665513,1.665744l2.50632,2.506311l0,0zm-14.700667,9.804166l-0.616665,3.001321l3.022726,-0.59525l-2.406061,-2.40607l0,0l0,0zm9.735022,-11.195349l0,-2.889192c0,-1.066955 -0.859051,-1.931897 -1.925948,-1.931897l-0.966715,0l0,0c0.00001,0.001572 0.00001,0.003134 0.00001,0.004705l0,0.954807c0,1.071227 -0.864585,1.933141 -1.931097,1.933141l-8.672638,0c-1.06953,0 -1.931097,-0.865501 -1.931097,-1.933141l0,-0.954807c0,-0.001572 0,-0.003134 0.00001,-0.004705l-0.966715,0c-1.063667,0 -1.925948,0.857922 -1.925948,1.931897l0,20.24165c0,1.066955 0.859051,1.931897 1.925948,1.931897l14.468242,0c1.063667,0 1.925948,-0.857922 1.925948,-1.931897l0,-9.638716l7.308877,-7.308877c0.75612,-0.75612 0.757952,-1.980214 0.009295,-2.728871l-1.137295,-1.137295c-0.750991,-0.750991 -1.964565,-0.755011 -2.728871,0.009295l-3.452006,3.452006l0,0l0,0zm-11.570613,-5.785307l0,-0.966233c0,-1.060302 0.865501,-1.92642 1.933141,-1.92642l0.954807,0c1.071227,0 1.933141,0.862493 1.933141,1.92642l0,0.966233l1.932697,0c0.531033,0 0.959956,0.431246 0.959956,0.963215l0,0.966223c0,0.536394 -0.42979,0.963215 -0.959956,0.963215l-8.686484,0c-0.531033,0 -0.959956,-0.431246 -0.959956,-0.963215l0,-0.966223c0,-0.536394 0.42979,-0.963215 0.959956,-0.963215l1.932697,0l0,0zm2.410544,0c0.266259,0 0.482109,-0.21585 0.482109,-0.482109c0,-0.266259 -0.21585,-0.482109 -0.482109,-0.482109c-0.266259,0 -0.482109,0.21585 -0.482109,0.482109c0,0.266259 0.21585,0.482109 0.482109,0.482109l0,0z"/>
 </g>
</svg>