<svg width="30" height="30" xmlns="http://www.w3.org/2000/svg">

 <g>
  <rect fill="none" id="canvas_background" height="32" width="32" y="-1" x="-1"/>
 </g>
 <g>
  <path stroke="null" fill="rgba(0, 0, 0, 0.7)" id="svg_1" d="m15,11.274768c0,2.056328 -1.668904,3.725232 -3.725232,3.725232c0,2.056328 1.668904,3.725232 3.725232,3.725232s3.725232,-1.668904 3.725232,-3.725232s-1.668904,-3.725232 -3.725232,-3.725232zm0,-7.450464c-7.640451,0 -14.900928,8.657439 -14.900928,11.175696s7.260477,11.175696 14.900928,11.175696s14.900928,-8.657439 14.900928,-11.175696s-7.260477,-11.175696 -14.900928,-11.175696zm0,18.62616c-4.114519,0 -7.450464,-3.335945 -7.450464,-7.450464s3.335945,-7.450464 7.450464,-7.450464s7.450464,3.335945 7.450464,7.450464s-3.335945,7.450464 -7.450464,7.450464z"/>
 </g>
</svg>