<?xml version="1.0" standalone="no"?>
<!DOCTYPE svg PUBLIC "-//W3C//DTD SVG 20010904//EN"
 "http://www.w3.org/TR/2001/REC-SVG-20010904/DTD/svg10.dtd">
<svg version="1.0" xmlns="http://www.w3.org/2000/svg"
 width="512.000000pt" height="512.000000pt" viewBox="0 0 512.000000 512.000000"
 preserveAspectRatio="xMidYMid meet">
<metadata>
Created by potrace 1.15, written by Peter Selinger 2001-2017
</metadata>
<g transform="translate(0.000000,512.000000) scale(0.100000,-0.100000)"
fill="#000000" stroke="none">
<path d="M2285 4524 c-149 -21 -247 -41 -343 -70 -531 -161 -956 -547 -1165
-1060 -243 -593 -154 -1280 232 -1793 273 -364 692 -622 1131 -696 52 -9 105
-18 118 -21 21 -4 22 -9 22 -87 0 -111 31 -177 104 -222 l49 -30 889 -3 c636
-2 901 1 931 9 55 15 131 90 146 144 6 22 11 114 11 205 0 271 -26 345 -165
479 -86 82 -191 148 -282 178 l-51 16 47 66 c362 504 441 1178 204 1755 -236
580 -755 1000 -1373 1111 -91 16 -433 29 -505 19z m388 -169 c636 -83 1162
-509 1370 -1111 185 -533 93 -1092 -257 -1558 l-51 -68 -56 5 c-79 7 -117 29
-140 83 l-20 45 22 35 c12 19 62 79 111 132 104 111 158 199 205 330 85 237
82 444 -9 615 -45 84 -146 183 -234 229 -229 120 -492 80 -674 -102 -129 -129
-176 -255 -167 -450 11 -253 97 -453 272 -635 130 -135 142 -171 77 -235 -30
-30 -48 -40 -87 -45 -297 -39 -465 -113 -617 -268 -76 -78 -111 -143 -129
-240 -15 -78 -7 -76 -149 -47 -511 104 -957 456 -1180 932 -303 647 -153 1419
370 1911 364 342 860 505 1343 442z"/>
<path d="M2470 3240 l0 -680 -460 0 -460 0 0 -85 0 -85 540 0 540 0 0 765 0
765 -80 0 -80 0 0 -680z"/>
</g>
</svg>
