<?xml version="1.0" standalone="no"?>
<!DOCTYPE svg PUBLIC "-//W3C//DTD SVG 20010904//EN"
 "http://www.w3.org/TR/2001/REC-SVG-20010904/DTD/svg10.dtd">
<svg version="1.0" xmlns="http://www.w3.org/2000/svg"
 width="1792.000000pt" height="1792.000000pt" viewBox="0 0 1792.000000 1792.000000"
 preserveAspectRatio="xMidYMid meet">
<metadata>
Created by potrace 1.15, written by Peter Selinger 2001-2017
</metadata>
<g transform="translate(0.000000,1792.000000) scale(0.100000,-0.100000)"
fill="#000000" stroke="none">
<path d="M13717 15920 c-472 -43 -905 -186 -1282 -423 -942 -595 -1445 -1657
-1309 -2767 116 -946 717 -1783 1579 -2199 770 -372 1685 -376 2453 -11 764
365 1325 1043 1533 1856 67 265 83 399 83 709 0 207 -4 298 -17 390 -65 438
-215 834 -453 1190 -100 151 -188 259 -324 399 -454 467 -1029 756 -1676 841
-145 19 -454 27 -587 15z m206 -964 c43 -18 94 -77 106 -123 5 -21 28 -364 50
-762 40 -694 43 -727 67 -802 15 -43 43 -102 63 -132 20 -30 205 -249 411
-486 206 -238 383 -446 393 -464 19 -36 22 -101 6 -144 -12 -34 -132 -158
-173 -180 -39 -20 -113 -21 -151 -1 -53 28 -1128 975 -1163 1024 -17 26 -42
78 -54 117 l-21 71 51 878 c46 783 54 882 71 916 21 41 42 62 86 85 39 21 211
23 258 3z"/>
<path d="M6860 14333 c-590 -41 -1061 -195 -1510 -495 -727 -484 -1217 -1202
-1374 -2013 -65 -337 -73 -768 -20 -1135 89 -618 377 -1190 838 -1667 625
-647 1368 -963 2266 -963 386 0 720 54 1055 170 820 285 1557 997 1875 1812
130 333 194 662 207 1053 27 859 -248 1603 -824 2228 -496 538 -1112 873
-1796 976 -227 34 -518 48 -717 34z"/>
<path d="M3920 8584 c-486 -40 -934 -212 -1281 -492 -185 -149 -418 -424 -566
-670 -283 -466 -461 -956 -598 -1645 -110 -555 -153 -984 -162 -1632 -6 -436
0 -544 43 -769 150 -774 711 -1344 1498 -1521 292 -65 -61 -60 4196 -60 4150
0 3914 -3 4175 52 779 163 1341 698 1520 1448 54 227 60 298 60 750 -1 528
-20 832 -81 1255 -135 954 -365 1649 -729 2200 -271 412 -541 660 -920 845
-278 136 -529 206 -845 234 -177 17 -261 14 -323 -9 -61 -23 -202 -109 -592
-361 -354 -229 -420 -268 -578 -344 -446 -214 -934 -354 -1380 -396 -183 -17
-593 -7 -767 20 -437 65 -892 212 -1285 415 -141 72 -173 92 -676 417 -152 98
-314 198 -359 221 -81 43 -82 43 -193 44 -62 1 -132 0 -157 -2z"/>
</g>
</svg>
