<svg width="30" height="30" xmlns="http://www.w3.org/2000/svg">

 <g>
  <title>background</title>
  <rect fill="none" id="canvas_background" height="402" width="582" y="-1" x="-1"/>
 </g>
 <g>
  <title>Layer 1</title>
  <path stroke="null" id="svg_1" fill="#000000" d="m23.32356,12.09123c-0.089501,-0.179001 -0.358003,-0.268502 -0.537004,-0.268502c-0.268502,0 -0.447503,0.089501 -0.537004,0.268502l-3.311524,4.564532l-1.879513,-2.237516c-0.089501,-0.179001 -0.358003,-0.268502 -0.537004,-0.268502c-0.179001,0 -0.358003,0.089501 -0.537004,0.268502l-6.354545,7.876056c-0.268502,0.268502 -0.179001,0.716005 0.089501,0.984507c0.089501,0.089501 0.268502,0.179001 0.447503,0.179001c0.179001,0 0.358003,-0.089501 0.537004,-0.268502l5.817541,-7.249552l1.969014,2.327017c0.089501,0.179001 0.358003,0.268502 0.537004,0.268502c0.179001,0 0.358003,-0.089501 0.537004,-0.268502l3.222023,-4.475032l2.148015,3.132522c0.179001,0.268502 0.626504,0.358003 0.895006,0.179001c0.268502,-0.179001 0.358003,-0.626504 0.179001,-0.895006l-2.685019,-4.117029zm-16.82612,-5.907042l15.662611,0c0.358003,0 0.716005,-0.268502 0.716005,-0.716005s-0.358003,-0.626504 -0.716005,-0.626504l-15.662611,0c-3.043022,0 -4.833034,1.790013 -4.833034,4.833034l0,9.218565c0,0.358003 0.268502,0.716005 0.716005,0.716005s0.716005,-0.268502 0.716005,-0.716005l0,-9.218565c-0.089501,-2.327017 1.074008,-3.490525 3.401024,-3.490525zm18.437131,0.358003l-17.989628,0c-1.879513,0 -3.401024,1.521511 -3.401024,3.401024l0,11.814084c0,1.879513 1.521511,3.401024 3.401024,3.401024l17.989628,0c1.879513,0 3.401024,-1.521511 3.401024,-3.401024l0,-11.814084c0,-1.879513 -1.521511,-3.401024 -3.401024,-3.401024zm2.058515,15.215108c0,1.074008 -0.895006,2.058515 -2.058515,2.058515l-17.989628,0c-1.074008,0 -2.058515,-0.895006 -2.058515,-2.058515l0,-11.814084c0,-1.074008 0.895006,-2.058515 2.058515,-2.058515l17.989628,0c1.074008,0 2.058515,0.895006 2.058515,2.058515l0,11.814084zm-14.0516,-8.144558c0,-1.43201 -1.163508,-2.685019 -2.685019,-2.685019c-1.43201,0 -2.685019,1.163508 -2.685019,2.685019c0,1.43201 1.163508,2.685019 2.685019,2.685019c1.521511,0 2.685019,-1.253009 2.685019,-2.685019zm-3.938028,0c0,-0.716005 0.626504,-1.34251 1.34251,-1.34251c0.716005,0 1.34251,0.626504 1.34251,1.34251c0,0.716005 -0.626504,1.34251 -1.34251,1.34251c-0.716005,0 -1.34251,-0.626504 -1.34251,-1.34251z"/>
 </g>
</svg>