<svg width="49.99999999999999" height="49.99999999999999" xmlns="http://www.w3.org/2000/svg">

 <g>
  <title>background</title>
  <rect fill="none" id="canvas_background" height="402" width="582" y="-1" x="-1"/>
 </g>
 <g>
  <title>Layer 1</title>
  <path stroke="null" fill="#000000" id="svg_1" d="m14.041846,6.214594l0,4.696351l-7.827252,0l0,32.87446l29.743559,0l0,-4.696351l7.827252,0l0,-26.936707l-5.937754,-5.937754l-23.805806,0zm24.264483,2.672224l2.806853,2.806853l-2.806853,0l0,-2.806853zm-3.913626,33.333137l-26.612658,0l0,-29.743559l6.261802,0l14.87178,0l0,5.479077l5.479077,0l0,21.133582l0,3.130901zm-3.913626,-28.636786l2.806853,2.806853l-2.806853,0l0,-2.806853zm5.479077,23.940434l0,-20.674905l-5.937754,-5.937754l-14.413103,0l0,-3.130901l21.133582,0l0,5.479077l5.479077,0l0,24.264483l-6.261802,0z"/>
 </g>
</svg>