<svg width="512" height="512" xmlns="http://www.w3.org/2000/svg">

 <g>
  <title>background</title>
  <rect fill="none" id="canvas_background" height="402" width="582" y="-1" x="-1"/>
 </g>
 <g>
  <title>Layer 1</title>
  <g stroke="null" id="svg_7">
   <path stroke="null" fill="#000000" id="svg_2" d="m489.472675,240.975411l-61.991224,-137.705696l-67.196594,30.167485l4.495547,10.055828c-14.314767,4.613851 -30.049181,5.678585 -46.020203,3.0759c-10.41074,-1.656254 -20.939784,-1.656254 -31.23222,0c-8.162967,1.301342 -16.325933,3.785724 -24.015684,7.216536c-3.549116,1.53795 -6.979928,3.430812 -10.41074,5.560282l-29.930877,14.669679c-4.613851,-0.828127 -9.227701,-1.419646 -13.841552,-1.656254c-16.325933,-0.709823 -31.705435,-4.968762 -44.955468,-12.421906l6.388409,-8.754486l-59.980058,-43.18091l-88.254682,122.562802l59.743451,43.062606l6.388409,-8.754486c11.357171,10.174132 20.229961,23.424165 26.02685,38.685363c0.473215,1.301342 0.946431,2.484381 1.53795,3.785724l-7.571447,10.41074c-7.571447,10.529044 -5.20537,25.317027 5.323674,32.888474c3.312508,2.366077 7.216536,3.904027 11.120563,4.258939c0,1.183039 0.118304,2.366077 0.236608,3.549116c1.064735,6.151801 4.377243,11.593779 9.464309,15.379502c4.022331,2.957597 8.87279,4.495547 13.723248,4.495547c0.709823,0 1.301342,0 2.011166,-0.118304c1.301342,5.20537 4.377243,10.055828 9.109397,13.48664c4.140635,2.957597 8.991094,4.495547 13.723248,4.495547c2.484381,0 4.968762,-0.354912 7.334839,-1.183039c1.656254,3.66742 4.258939,6.861624 7.571447,9.227701c4.022331,2.957597 8.87279,4.495547 13.723248,4.495547c1.301342,0 2.602685,-0.118304 3.785724,-0.354912c6.270105,-1.064735 11.712082,-4.377243 15.379502,-9.464309l4.732155,-6.625016l22.596038,13.013425c4.022331,2.366077 8.517878,3.430812 12.776817,3.430812c6.979928,0 13.723248,-2.839293 18.455403,-8.28127c2.602685,-3.0759 4.495547,-6.625016 5.441978,-10.529044c4.613851,1.53795 9.464309,1.892862 14.433071,1.064735c8.044663,-1.301342 15.024591,-5.678585 19.756745,-12.303602c3.0759,-4.377243 5.087066,-9.464309 5.560282,-14.669679c0.236608,-2.366077 0.236608,-4.732155 -0.118304,-6.979928c8.28127,-0.473215 16.207629,-4.140635 21.649607,-10.765652c4.613851,-5.560282 6.979928,-12.303602 6.979928,-19.401833c1.656254,0.118304 3.430812,0 5.20537,-0.354912c6.506712,-1.064735 12.185298,-4.613851 15.971021,-9.937524c3.194204,-4.495547 5.20537,-9.700917 5.796889,-15.261198c0,-0.236608 0,-0.591519 0.118304,-0.828127c1.656254,-2.12947 3.194204,-4.377243 4.613851,-6.625016c8.636182,-13.723248 19.875049,-24.725507 32.77017,-32.415258l4.377243,9.582613l67.196594,-30.049181zm-21.886215,-8.399574l-36.910805,16.562541l-48.38628,-107.538211l36.910805,-16.562541l48.38628,107.538211zm-353.018726,-101.38641l32.888474,23.660773l-66.250163,91.803797l-2.720989,3.785724l-32.888474,-23.660773l68.971152,-95.589521zm7.571447,196.266108l10.292436,-14.314767l0.591519,-0.828127c1.064735,-1.53795 2.720989,-2.484381 4.495547,-2.839293c0.354912,0 0.709823,-0.118304 0.946431,-0.118304c0.118304,0 0.118304,0 0.236608,0c0.354912,0 0.591519,0 0.946431,0.118304c0.118304,0 0.118304,0 0.236608,0c0.236608,0 0.473215,0.118304 0.828127,0.236608c0,0 0.118304,0 0.236608,0c0.236608,0.118304 0.591519,0.236608 0.828127,0.354912c0.118304,0 0.118304,0.118304 0.236608,0.118304c0.236608,0.118304 0.591519,0.354912 0.828127,0.473215c0.709823,0.591519 1.419646,1.183039 1.892862,2.011166c0.591519,1.064735 0.946431,2.247773 1.064735,3.430812c0,0.354912 0,0.591519 0,0.946431l0,0c0,0.354912 -0.118304,0.709823 -0.236608,0.946431c-0.118304,0.591519 -0.354912,1.064735 -0.591519,1.53795c-0.118304,0.236608 -0.354912,0.473215 -0.473215,0.828127l0,0c0,0 0,0 0,0l-10.883955,15.142894c-1.064735,1.53795 -2.720989,2.484381 -4.495547,2.839293c-1.892862,0.354912 -3.66742,-0.118304 -5.20537,-1.183039c-3.312508,-2.247773 -4.022331,-6.625016 -1.774558,-9.700917zm22.477734,33.006778c-1.53795,-1.064735 -2.484381,-2.720989 -2.839293,-4.495547c-0.354912,-1.892862 0.118304,-3.66742 1.183039,-5.20537l24.370596,-33.834905c1.064735,-1.53795 2.720989,-2.484381 4.495547,-2.839293c0.354912,0 0.709823,-0.118304 1.064735,-0.118304c0.118304,0 0.118304,0 0.236608,0c0.354912,0 0.591519,0 0.946431,0.118304c0.118304,0 0.118304,0 0.118304,0c0.236608,0 0.591519,0.118304 0.828127,0.236608c0,0 0.118304,0 0.118304,0c0.354912,0.118304 0.591519,0.236608 0.828127,0.354912c0.118304,0 0.118304,0.118304 0.236608,0.118304c0.236608,0.118304 0.591519,0.354912 0.828127,0.473215c2.011166,1.419646 3.0759,3.904027 2.839293,6.388409c0,0.354912 -0.118304,0.591519 -0.118304,0.946431c0,0.118304 -0.118304,0.236608 -0.118304,0.354912c0,0.118304 -0.118304,0.354912 -0.118304,0.473215c0,0.118304 -0.118304,0.236608 -0.118304,0.354912c-0.118304,0.118304 -0.118304,0.354912 -0.236608,0.473215c-0.118304,0.118304 -0.236608,0.236608 -0.236608,0.473215c-0.118304,0.118304 -0.118304,0.236608 -0.236608,0.354912c0,0 0,0 0,0l0,0c0,0 0,0 0,0l-24.370596,33.834905c-1.064735,1.53795 -2.720989,2.484381 -4.495547,2.839293c-1.892862,0.236608 -3.785724,-0.236608 -5.20537,-1.301342zm24.725507,17.863883c-3.0759,-2.247773 -3.785724,-6.625016 -1.53795,-9.700917l24.370596,-33.834905c0,0 0,0 0,0c0,0 0,0 0,0c0.236608,-0.354912 0.473215,-0.591519 0.828127,-0.946431c0.118304,-0.118304 0.118304,-0.118304 0.236608,-0.236608c0.236608,-0.236608 0.591519,-0.473215 0.946431,-0.709823c0.118304,0 0.118304,-0.118304 0.236608,-0.118304c0.354912,-0.118304 0.591519,-0.354912 0.946431,-0.473215c0.118304,0 0.118304,0 0.118304,-0.118304c0.354912,-0.118304 0.709823,-0.236608 1.183039,-0.354912c0.118304,0 0.236608,0 0.354912,-0.118304c0.118304,0 0.118304,0 0.236608,0c0.236608,0 0.473215,0 0.591519,0c0,0 0.118304,0 0.118304,0c0.354912,0 0.709823,0 1.064735,0.118304c0,0 0,0 0,0c0.354912,0 0.709823,0.118304 0.946431,0.236608c0,0 0,0 0.118304,0c0.354912,0.118304 0.591519,0.236608 0.946431,0.354912c0,0 0.118304,0 0.118304,0.118304c0.236608,0.118304 0.591519,0.354912 0.828127,0.473215c1.301342,0.946431 2.12947,2.247773 2.602685,3.66742c0.236608,0.828127 0.354912,1.774558 0.236608,2.720989c-0.118304,1.183039 -0.591519,2.366077 -1.301342,3.430812l-24.370596,33.834905c-2.366077,3.194204 -6.625016,3.904027 -9.819221,1.656254zm33.834905,13.604944c-1.892862,0.354912 -3.66742,-0.118304 -5.20537,-1.183039c-1.53795,-1.064735 -2.484381,-2.720989 -2.839293,-4.495547c-0.354912,-1.892862 0.118304,-3.66742 1.183039,-5.20537l10.883955,-15.142894c0.236608,-0.236608 0.354912,-0.473215 0.591519,-0.709823c0.118304,-0.118304 0.236608,-0.236608 0.354912,-0.354912c0.236608,-0.236608 0.473215,-0.354912 0.709823,-0.591519c0.118304,-0.118304 0.236608,-0.236608 0.354912,-0.236608c0.236608,-0.118304 0.591519,-0.236608 0.828127,-0.354912c0.118304,-0.118304 0.236608,-0.118304 0.354912,-0.236608c0.473215,-0.118304 0.828127,-0.236608 1.301342,-0.354912c0.354912,0 0.709823,-0.118304 0.946431,-0.118304c0.118304,0 0.118304,0 0.236608,0c0.354912,0 0.591519,0 0.946431,0.118304c0.118304,0 0.118304,0 0.236608,0c0.236608,0 0.473215,0.118304 0.828127,0.236608c0,0 0.118304,0 0.118304,0c0.236608,0.118304 0.591519,0.236608 0.828127,0.354912c0.118304,0 0.118304,0.118304 0.236608,0.118304c0.236608,0.118304 0.591519,0.354912 0.828127,0.473215c2.011166,1.419646 3.0759,3.904027 2.839293,6.388409c-0.118304,1.183039 -0.591519,2.366077 -1.301342,3.430812l-10.647348,15.142894c-1.183039,1.419646 -2.720989,2.484381 -4.613851,2.720989zm160.774949,-92.158709l0,0c-0.236608,2.602685 -1.183039,5.087066 -2.720989,7.216536c-1.301342,1.774558 -3.0759,2.839293 -5.20537,3.194204c-2.12947,0.354912 -4.258939,-0.118304 -5.915193,-1.419646l-9.227701,-6.625016l0,0c0,0 0,0 0,0l-18.100491,-13.013425c-3.66742,-2.720989 -8.87279,-1.774558 -11.593779,1.892862c-2.720989,3.66742 -1.774558,8.87279 1.892862,11.593779l18.100491,13.013425c0,0 0,0 0,0c3.194204,2.247773 5.087066,5.678585 5.678585,9.464309c0.473215,3.785724 -0.591519,7.571447 -3.0759,10.647348c-4.495547,5.560282 -13.250033,6.388409 -19.401833,2.011166l-1.774558,-1.301342c0,0 -0.118304,-0.118304 -0.118304,-0.118304l0,0l-22.35943,-16.089325c-3.66742,-2.720989 -8.87279,-1.774558 -11.593779,1.892862c-2.720989,3.66742 -1.774558,8.87279 1.892862,11.593779l22.35943,16.089325c0,0 0,0 0,0l0,0c3.904027,2.839293 6.033497,7.689751 5.560282,12.658513c-0.236608,2.484381 -1.064735,4.732155 -2.484381,6.625016c-2.12947,2.957597 -5.323674,4.968762 -8.991094,5.560282c-3.66742,0.591519 -7.334839,-0.236608 -10.292436,-2.484381l-10.883955,-7.808055c0,0 -0.118304,0 -0.118304,-0.118304l-21.176391,-15.261198c-3.66742,-2.720989 -8.87279,-1.774558 -11.593779,1.892862c-2.720989,3.66742 -1.774558,8.87279 1.892862,11.593779l21.176391,15.261198l0,0l0,0l0,0c1.774558,1.301342 2.957597,3.312508 3.194204,5.560282c0.236608,2.247773 -0.473215,4.495547 -1.892862,6.270105c-2.484381,2.839293 -6.979928,3.430812 -10.529044,1.301342l-21.649607,-12.540209c0,0 0,0 0,0c0.118304,-0.236608 0.236608,-0.591519 0.236608,-0.828127c0.118304,-0.236608 0.118304,-0.473215 0.236608,-0.591519c0.118304,-0.236608 0.118304,-0.591519 0.236608,-0.828127c0,-0.236608 0.118304,-0.354912 0.118304,-0.591519c0.118304,-0.354912 0.118304,-0.709823 0.236608,-0.946431c0,-0.236608 0.118304,-0.354912 0.118304,-0.591519c0.118304,-0.473215 0.118304,-1.064735 0.236608,-1.53795c0.828127,-8.399574 -2.839293,-16.562541 -9.700917,-21.531303c-0.591519,-0.473215 -1.183039,-0.828127 -1.774558,-1.183039c-0.236608,-0.118304 -0.354912,-0.236608 -0.591519,-0.354912c-0.473215,-0.236608 -0.828127,-0.473215 -1.301342,-0.709823c-0.236608,-0.118304 -0.473215,-0.236608 -0.709823,-0.354912c-0.354912,-0.118304 -0.828127,-0.354912 -1.301342,-0.473215c-0.236608,-0.118304 -0.473215,-0.236608 -0.828127,-0.236608c-0.118304,0 -0.354912,-0.118304 -0.473215,-0.118304c0,0 0,-0.118304 0,-0.118304c0.118304,-0.236608 0.236608,-0.591519 0.354912,-0.946431c0.118304,-0.236608 0.118304,-0.354912 0.236608,-0.591519c0.118304,-0.354912 0.236608,-0.591519 0.236608,-0.946431c0,-0.236608 0.118304,-0.354912 0.118304,-0.591519c0.118304,-0.354912 0.118304,-0.709823 0.236608,-1.064735c0,-0.118304 0.118304,-0.354912 0.118304,-0.473215c0.118304,-0.473215 0.118304,-1.064735 0.236608,-1.53795l0,0c0.828127,-7.808055 -2.366077,-15.497806 -8.399574,-20.466568c-0.354912,-0.354912 -0.828127,-0.709823 -1.183039,-0.946431c-0.591519,-0.473215 -1.301342,-0.828127 -1.892862,-1.183039c-0.236608,-0.118304 -0.354912,-0.236608 -0.591519,-0.354912c-0.473215,-0.236608 -0.946431,-0.473215 -1.419646,-0.709823c-0.236608,-0.118304 -0.473215,-0.236608 -0.591519,-0.236608c-0.473215,-0.236608 -0.946431,-0.354912 -1.53795,-0.591519c-0.236608,-0.118304 -0.354912,-0.118304 -0.591519,-0.236608c-0.591519,-0.118304 -1.064735,-0.354912 -1.656254,-0.473215c-0.118304,0 -0.354912,-0.118304 -0.473215,-0.118304c-0.591519,-0.118304 -1.183039,-0.236608 -1.774558,-0.354912c-0.118304,0 -0.236608,0 -0.354912,0c-0.591519,-0.118304 -1.301342,-0.118304 -1.892862,-0.118304c-0.118304,0 -0.236608,0 -0.236608,0c-0.709823,0 -1.419646,0 -2.011166,0c0,0 -0.118304,0 -0.118304,0c-0.118304,0 -0.236608,0 -0.354912,0c0,-0.118304 -0.118304,-0.236608 -0.118304,-0.354912c-0.118304,-0.473215 -0.236608,-0.946431 -0.354912,-1.419646c0,-0.236608 -0.118304,-0.354912 -0.236608,-0.591519c-0.118304,-0.473215 -0.354912,-0.946431 -0.591519,-1.419646c0,-0.118304 -0.118304,-0.236608 -0.118304,-0.236608c-0.236608,-0.591519 -0.473215,-1.064735 -0.828127,-1.656254c-0.118304,-0.118304 -0.118304,-0.236608 -0.236608,-0.473215c-0.236608,-0.354912 -0.473215,-0.828127 -0.709823,-1.183039c-0.118304,-0.118304 -0.236608,-0.354912 -0.354912,-0.473215c-0.354912,-0.473215 -0.591519,-0.946431 -0.946431,-1.301342c0,0 -0.118304,-0.118304 -0.118304,-0.118304c-0.354912,-0.473215 -0.828127,-0.946431 -1.183039,-1.419646c-0.118304,-0.118304 -0.236608,-0.236608 -0.354912,-0.354912c-0.354912,-0.354912 -0.709823,-0.709823 -1.064735,-0.946431c-0.118304,-0.118304 -0.236608,-0.236608 -0.473215,-0.354912c-0.473215,-0.354912 -0.946431,-0.828127 -1.53795,-1.183039c-5.087066,-3.66742 -11.357171,-5.20537 -17.508972,-4.140635c-0.709823,0.118304 -1.419646,0.236608 -2.011166,0.473215c-0.118304,0 -0.354912,0.118304 -0.473215,0.118304c-0.591519,0.118304 -1.183039,0.354912 -1.774558,0.591519c-0.118304,0 -0.118304,0 -0.236608,0.118304c-0.591519,0.236608 -1.301342,0.473215 -1.892862,0.828127c-0.118304,0.118304 -0.354912,0.118304 -0.473215,0.236608c-0.473215,0.236608 -1.064735,0.591519 -1.53795,0.828127c-0.118304,0 -0.236608,0.118304 -0.236608,0.118304c-0.591519,0.354912 -1.183039,0.709823 -1.656254,1.183039c-0.118304,0.118304 -0.236608,0.236608 -0.354912,0.354912c-0.236608,0.118304 -0.354912,0.354912 -0.591519,0.473215c0,0 0,0 0,0c-0.354912,-0.473215 -0.709823,-0.946431 -1.064735,-1.419646c-0.118304,-0.118304 -0.236608,-0.236608 -0.354912,-0.354912c-0.236608,-0.354912 -0.591519,-0.709823 -0.828127,-0.946431c-0.118304,-0.118304 -0.236608,-0.236608 -0.473215,-0.473215c-0.354912,-0.354912 -0.591519,-0.591519 -0.946431,-0.828127c-0.118304,-0.118304 -0.236608,-0.236608 -0.473215,-0.354912c-0.473215,-0.354912 -0.946431,-0.709823 -1.419646,-1.064735c-5.087066,-3.66742 -11.357171,-5.20537 -17.508972,-4.140635c-0.709823,0.118304 -1.419646,0.236608 -2.011166,0.473215c-0.118304,0 -0.354912,0.118304 -0.473215,0.118304c-0.709823,0.236608 -1.301342,0.354912 -2.011166,0.591519c0,0 -0.118304,0 -0.118304,0c-0.473215,0.118304 -0.828127,0.354912 -1.301342,0.473215c-6.979928,-17.15406 -17.508972,-32.060347 -30.759004,-43.535821l56.194335,-77.962246c11.120563,6.625016 23.542469,11.238867 36.792501,13.604944l-7.098232,69.917583c-1.064735,10.529044 6.625016,19.875049 17.035756,20.939784c9.819221,0.946431 19.28353,-1.892862 26.854977,-8.044663c7.571447,-6.151801 12.303602,-15.024591 13.368336,-24.725507l1.892862,-18.337099c9.582613,-0.354912 18.928618,-3.194204 27.209888,-8.044663l87.663162,67.669809c0.591519,0.473215 0.946431,0.828127 1.183039,1.064735l0.118304,0.118304c0.118304,0.118304 0.354912,0.354912 0.473215,0.473215l0.236608,0.236608c0.118304,0.118304 0.118304,0.236608 0.236608,0.236608l0.236608,0.236608c0.118304,0.118304 0.236608,0.236608 0.354912,0.354912l0.709823,1.064735c0.354912,0.473215 0.591519,0.946431 0.709823,1.301342l0.118304,0.236608c0.118304,0.236608 0.118304,0.354912 0.236608,0.591519c0.118304,0.236608 0.236608,0.473215 0.236608,0.709823c0.118304,0.236608 0.118304,0.473215 0.236608,0.709823l0.236608,0.709823c0.118304,0.591519 0.236608,1.183039 0.354912,1.656254l0,0.236608c0,0.236608 0,0.473215 0.118304,0.709823c0,0 0,0.118304 0,0.118304l0,0l0,0.591519c-0.118304,0.473215 -0.118304,1.183039 -0.236608,1.774558zm10.765652,-19.993353l-0.118304,-0.236608c-0.118304,-0.118304 -0.118304,-0.118304 -0.236608,-0.236608c-0.236608,-0.354912 -0.473215,-0.591519 -0.709823,-0.828127c0,0 0,0 0,0c0,0 0,0 -0.118304,-0.118304c-0.118304,-0.118304 -0.236608,-0.236608 -0.354912,-0.473215c-0.118304,-0.118304 -0.118304,-0.118304 -0.236608,-0.236608c-0.118304,-0.236608 -0.354912,-0.354912 -0.473215,-0.591519c0,0 -0.118304,-0.118304 -0.118304,-0.118304c-0.236608,-0.236608 -0.354912,-0.354912 -0.591519,-0.591519c-0.236608,-0.236608 -0.354912,-0.473215 -0.591519,-0.591519c-0.828127,-0.828127 -1.656254,-1.53795 -2.839293,-2.484381l-97.482383,-75.241257l-5.087066,3.785724c-8.399574,6.270105 -18.69201,9.227701 -29.221054,8.162967l-8.28127,-0.828127l-3.430812,34.189816c-0.591519,5.323674 -3.194204,10.174132 -7.334839,13.604944c-4.140635,3.430812 -9.464309,4.968762 -14.787983,4.377243c-1.419646,-0.118304 -2.366077,-1.419646 -2.247773,-2.720989l5.915193,-58.087197l42.352783,-20.82148l0,0l11.712082,-5.796889l0.709823,-0.354912c3.0759,-1.892862 6.033497,-3.430812 8.991094,-4.732155c6.388409,-2.839293 13.131729,-4.968762 19.875049,-6.033497c8.517878,-1.419646 17.272364,-1.419646 25.908546,0c19.165226,3.194204 38.212148,1.656254 55.484512,-4.140635l39.395186,87.663162c-13.841552,8.044663 -26.263458,19.401833 -36.082678,33.479993z" class="st0"/>
   <path stroke="null" fill="#000000" id="svg_3" d="m439.785053,238.017814c0.473215,0 0.828127,0.118304 1.301342,0.118304c2.839293,0 5.560282,-0.946431 7.689751,-2.720989c2.484381,-2.12947 4.140635,-4.968762 4.495547,-8.28127c0.709823,-6.74332 -4.258939,-12.776817 -11.002259,-13.48664c-6.74332,-0.709823 -12.776817,4.258939 -13.48664,11.002259c-0.591519,6.74332 4.377243,12.776817 11.002259,13.368336zm-2.720989,-12.540209c0.236608,-2.011166 1.892862,-3.549116 3.904027,-3.549116c0.118304,0 0.236608,0 0.354912,0c1.064735,0.118304 2.011166,0.591519 2.720989,1.419646c0.709823,0.828127 0.946431,1.892862 0.828127,2.957597l0,0c-0.118304,1.064735 -0.591519,2.011166 -1.419646,2.720989c-0.828127,0.709823 -1.892862,0.946431 -2.957597,0.828127c-2.011166,-0.236608 -3.549116,-2.247773 -3.430812,-4.377243z" class="st0"/>
   <path stroke="null" fill="#000000" id="svg_4" d="m83.927033,225.004389c0.709823,-6.74332 -4.258939,-12.776817 -11.002259,-13.48664c-6.74332,-0.709823 -12.776817,4.258939 -13.48664,11.002259c-0.354912,3.312508 0.591519,6.506712 2.720989,8.991094c2.12947,2.484381 4.968762,4.140635 8.28127,4.495547c0.473215,0 0.828127,0.118304 1.301342,0.118304c6.270105,-0.118304 11.593779,-4.732155 12.185298,-11.120563zm-15.261198,1.301342c-0.709823,-0.828127 -0.946431,-1.892862 -0.828127,-2.957597c0.236608,-2.011166 1.892862,-3.549116 3.904027,-3.549116c0.118304,0 0.236608,0 0.354912,0c2.12947,0.236608 3.785724,2.12947 3.549116,4.377243c-0.236608,2.12947 -2.12947,3.785724 -4.377243,3.549116c-0.946431,-0.118304 -1.892862,-0.591519 -2.602685,-1.419646z" class="st0"/>
  </g>
 </g>
</svg>