<svg width="52.00000000000001" height="52.00000000000001" xmlns="http://www.w3.org/2000/svg">

 <g>
  <title>background</title>
  <rect fill="none" id="canvas_background" height="402" width="582" y="-1" x="-1"/>
 </g>
 <g>
  <title>Layer 1</title>
  <g stroke="null" id="svg_24">
   <path stroke="null" fill="#000000" id="svg_3" d="m41.659381,6.571441c6.234728,1.678479 1.054917,7.580826 -0.225197,11.218705c-0.811831,2.307097 -1.24368,4.676531 -2.843011,6.575812c-1.536909,1.825139 -3.727294,3.22194 -5.590354,4.699715c0.544048,0.22535 1.088105,0.450708 1.632153,0.676057c-0.301404,-2.295776 -0.872172,-4.731882 -0.421532,-7.004848c0.317908,-1.603444 1.135399,-3.247359 1.6637,-4.793778c0.614255,-1.798003 1.078697,-3.649778 1.698476,-5.442223c0.243885,-0.705335 3.162347,-6.783527 4.274342,-6.272131c1.110346,0.51064 2.083047,-1.136997 0.965113,-1.651122c-3.159092,-1.452849 -6.072812,4.581847 -6.888145,6.845465c-1.165476,3.235716 -2.562718,6.735008 -3.480544,10.020127c-0.753658,2.697523 -0.085819,5.53949 0.276409,8.298509c0.11219,0.854613 0.947877,1.21883 1.632153,0.676066c2.766464,-2.194354 5.816664,-3.983536 7.313093,-7.27649c1.473993,-3.243577 2.358692,-6.470803 4.092514,-9.631553c2.454233,-4.474051 1.240697,-7.481485 -3.590831,-8.7822c-1.18968,-0.320279 -1.697252,1.523812 -0.508337,1.843887l0,0z" class="st0"/>
   <path stroke="null" fill="#000000" id="svg_5" d="m38.230967,10.875418c1.976814,0.17078 3.665509,1.02077 5.203403,2.270051c0.947095,0.769364 2.308014,-0.57562 1.352123,-1.352123c-1.972242,-1.602119 -4.015873,-2.610719 -6.555526,-2.830119c-1.225833,-0.105901 -1.218746,1.806901 0,1.912191l0,0z" class="st0"/>
   <path stroke="null" fill="#000000" id="svg_7" d="m11.389339,30.693789c7.436324,0.013538 14.872639,0.027077 22.308954,0.040615c1.230491,0.002235 1.232335,-1.909947 0,-1.912191c-7.436315,-0.013538 -14.87263,-0.027077 -22.308954,-0.040615c-1.230491,-0.002244 -1.232335,1.909947 0,1.912191l0,0z" class="st0"/>
   <path stroke="null" fill="#000000" id="svg_9" d="m11.318494,26.953161c4.697854,0 9.395707,0 14.093561,0c1.230397,0 1.232437,-1.912191 0,-1.912191c-4.697854,0 -9.395707,0 -14.093561,0c-1.230406,0 -1.232437,1.912191 0,1.912191l0,0z" class="st0"/>
   <path stroke="null" fill="#000000" id="svg_11" d="m11.389517,22.748832c3.659092,0.028147 7.318193,0.056303 10.977285,0.084459c1.230737,0.009467 1.231961,-1.902715 0,-1.912191c-3.659092,-0.028156 -7.318193,-0.056312 -10.977285,-0.084459c-1.230737,-0.009467 -1.231961,1.902715 0,1.912191l0,0z" class="st0"/>
   <path stroke="null" fill="#000000" id="svg_13" d="m39.342426,24.580821c-0.025453,3.502437 0.287746,7.190416 -0.077601,10.676926c-0.341781,3.261671 -1.367276,4.255823 -4.482269,4.221922c-1.972319,-0.021468 -3.944637,-0.042944 -5.916948,-0.064411c-3.944637,-0.042935 -7.889275,-0.085879 -11.833912,-0.128814c-1.669666,-0.018179 -3.417536,0.126817 -5.071674,-0.055207c-1.620476,0.201001 -3.111041,-0.207273 -4.47168,-1.224839c-0.115564,-0.934687 -0.164304,-1.87189 -0.14621,-2.811601c-0.092423,-3.640234 -0.014499,-7.291991 -0.021739,-10.933882c-0.002788,-1.403837 -0.731468,-5.579229 -0.013368,-6.728532c1.083864,-1.734697 4.015907,-1.363367 5.648051,-1.373794c7.905754,-0.050507 15.811507,-0.101015 23.717261,-0.151531c1.230015,-0.007853 1.232734,-1.920069 0,-1.912191c-6.211663,0.039689 -12.423326,0.079377 -18.634989,0.119066c-2.801768,0.017898 -5.674031,-0.132834 -8.470453,0.054119c-1.056379,0.070615 -2.221379,0.049394 -3.091401,0.773834c-2.477961,2.063314 -1.06951,8.102964 -1.063943,10.901171c0.005575,2.803501 0.002269,5.607198 0.016717,8.410674c0.008286,1.608102 -0.228987,3.832201 0.658499,5.299182c1.632255,2.698033 6.680541,1.499302 9.254375,1.527314c5.916956,0.064411 11.833904,0.128822 17.75086,0.193225c2.253436,0.024536 6.592325,0.979246 7.865734,-1.708904c0.74827,-1.57958 0.218304,-4.271784 0.230372,-5.932075c0.022164,-3.050548 0.044337,-6.101104 0.06651,-9.151652c0.008949,-1.230729 -1.903233,-1.231995 -1.912191,0l0,0z" class="st0"/>
   <path stroke="null" fill="#000000" id="svg_15" d="m6.644207,35.328804c10.977404,-0.009017 21.954807,-0.018034 32.932211,-0.027043c1.230363,-0.00102 1.232488,-1.913211 0,-1.912191c-10.977404,0.009009 -21.954807,0.018026 -32.932211,0.027043c-1.230355,0.001011 -1.232479,1.913202 0,1.912191l0,0z" class="st0"/>
   <path stroke="null" fill="#000000" id="svg_17" d="m23.074933,38.21385c1.230397,0 1.232437,-1.912191 0,-1.912191c-1.230406,0 -1.232445,1.912191 0,1.912191l0,0z" class="st0"/>
   <path stroke="null" fill="#000000" id="svg_19" d="m15.072151,47.625008c5.289205,0.053626 10.576184,0.001496 15.863281,-0.156426c1.227729,-0.036672 1.232938,-1.949015 0,-1.912191c-5.287114,0.157921 -10.574093,0.210052 -15.863281,0.156426c-1.230814,-0.012484 -1.231774,1.899698 0,1.912191l0,0z" class="st0"/>
   <path stroke="null" fill="#000000" id="svg_21" d="m24.561487,41.434022c0.716953,0.459215 1.011787,1.557696 1.505132,2.232844c0.620672,0.849395 1.62175,1.577991 2.020404,2.560356c0.456716,1.125448 2.307216,0.633403 1.843887,-0.508337c-0.537241,-1.323865 -1.62985,-2.140413 -2.414103,-3.297841c-0.652864,-0.963515 -0.96507,-1.981531 -1.9902,-2.638144c-1.039306,-0.665689 -1.999319,0.988696 -0.965121,1.651122l0,0z" class="st0"/>
   <path stroke="null" fill="#000000" id="svg_23" d="m19.846951,40.549969c-0.320942,0.931951 -1.069391,1.654963 -1.653017,2.428865c-0.62668,0.830996 -1.200694,1.695289 -1.737272,2.58682c-0.636182,1.057008 1.016572,2.01941 1.651122,0.965113c0.628788,-1.044728 1.309528,-2.051942 2.067027,-3.007953c0.617085,-0.778797 1.188218,-1.51262 1.516027,-2.464508c0.401543,-1.166003 -1.444919,-1.666853 -1.843887,-0.508337l0,0z" class="st0"/>
  </g>
 </g>
</svg>