<svg width="32" height="32" xmlns="http://www.w3.org/2000/svg">

 <g>
  <title>background</title>
  <rect fill="none" id="canvas_background" height="402" width="582" y="-1" x="-1"/>
 </g>
 <g>
  <title>Layer 1</title>
  <path stroke="#000000" fill="#000000" id="svg_2" d="m20.75,4.39908l8.095,4.704l-4.729,3.18l4.729,3.178l-4.746,2.759l-0.011,3.423l-8.094,4.704l-8.146,-4.704l0.011,-3.457l-4.688,-2.725l4.703,-3.161l0,-0.017l0.016,-0.01l-4.719,-3.17l8.095,-4.704l4.742,3.186l4.742,-3.186m-0.038,-1.179l-0.52,0.349l-4.184,2.81l-4.185,-2.81l-0.52,-0.349l-0.541,0.314l-8.094,4.704l-1.382,0.803l1.327,0.892l3.495,2.348l-3.495,2.35l-1.326,0.892l1.381,0.803l4.188,2.435l-0.009,2.88l-0.002,0.579l0.502,0.29l8.146,4.704l0.502,0.289l0.501,-0.291l8.094,-4.704l0.495,-0.288l0.002,-0.573l0.009,-2.85l4.251,-2.471l1.382,-0.803l-1.327,-0.892l-3.494,-2.348l3.494,-2.35l1.326,-0.892l-1.381,-0.803l-8.095,-4.704l-0.54,-0.314l0,0z" class="st2"/>
  <polygon stroke-miterlimit="10" stroke-width="0.5" stroke="#000000" fill="none" id="svg_3" points="24.522,12.067 16.01,7.152 7.525,12.067 16.037,16.981 " class="st0"/>
  <polyline stroke-miterlimit="10" stroke-width="0.5" stroke="#000000" fill="none" id="svg_4" points="24.488,18.23 20.979,20.27 16.021,16.921 11.036,20.27 7.51,18.219 " class="st0"/>
  <polyline stroke-miterlimit="10" stroke-width="0.5" stroke="#000000" fill="none" id="svg_5" points="16.056,7.503 16.021,16.921 16.021,26.749 " class="st0"/>
 </g>
</svg>