<svg width="1792" height="1792" xmlns="http://www.w3.org/2000/svg">

 <g>
  <rect fill="none" id="canvas_background" height="402" width="582" y="-1" x="-1"/>
 </g>
 <g>
  <path stroke="null" id="svg_1" d="m658.235186,896.000002q-118.139394,0 -201.728587,-83.589194t-83.589194,-201.728587t83.589194,-201.728587t201.728587,-83.589194t201.728587,83.589194t83.589194,201.728587t-83.589194,201.728587t-201.728587,83.589194zm713.294452,95.105927l261.541299,0q9.659196,0 16.717839,7.058643t7.058643,16.717839l0,142.65889q0,9.659196 -7.058643,16.717839t-16.717839,7.058643l-261.541299,0l0,261.541299q0,9.659196 -7.058643,16.717839t-16.717839,7.058643l-142.65889,0q-9.659196,0 -16.717839,-7.058643t-7.058643,-16.717839l0,-261.541299l-261.541299,0q-9.659196,0 -16.717839,-7.058643t-7.058643,-16.717839l0,-142.65889q0,-9.659196 7.058643,-16.717839t16.717839,-7.058643l261.541299,0l0,-261.541299q0,-9.659196 7.058643,-16.717839t16.717839,-7.058643l142.65889,0q9.659196,0 16.717839,7.058643t7.058643,16.717839l0,261.541299zm-546.85908,166.435372q0,38.636783 28.234572,66.871355t66.871355,28.234572l190.211854,0l0,176.837583q-50.525024,37.150753 -127.055574,37.150753l-649.395157,0q-89.904822,0 -144.144921,-51.268039t-54.240099,-141.17286q0,-39.379798 2.600553,-76.902058t10.402211,-80.988641t19.689899,-80.617133t31.949647,-72.443968t46.066933,-60.184219t63.527787,-39.751305t82.846179,-14.860301q14.117286,0 28.977587,12.631256q58.698189,45.323918 114.795826,67.985877t122.225976,22.661959t122.225976,-22.661959t114.795826,-67.985877q14.860301,-12.631256 28.977587,-12.631256q98.077987,0 161.234267,71.329445l-165.692357,0q-38.636783,0 -66.871355,28.234572t-28.234572,66.871355l0,142.65889z"/>
 </g>
</svg>