<svg width="219.99999999999997" height="174" xmlns="http://www.w3.org/2000/svg">

 <g>
  <title>background</title>
  <rect fill="none" id="canvas_background" height="176" width="222" y="-1" x="-1"/>
 </g>
 <g>
  <title>Layer 1</title>
  <g id="svg_1">
   <rect x="-0.740741" fill="#cb2127" y="-0.059224" width="512" id="XMLID_7_" height="298.7" class="st0"/>
   <g stroke="null" id="svg_2">
    <polygon stroke="null" fill="#f7de28" points="51.289154052734375,89.45303344726562 57.123146057128906,71.34334945678711 41.748146057128906,60.10076141357422 60.76939010620117,60.03998565673828 66.72491836547852,41.991079330444336 72.61968231201172,60.03998565673828 91.64092636108398,60.10076141357422 76.26593399047852,71.34334945678711 82.09991836547852,89.45303344726562 66.72491836547852,78.27120971679688 " id="XMLID_6_" class="st1"/>
    <polygon stroke="null" fill="#f7de28" points="104.34201431274414,99.23711395263672 110.78371047973633,101.78948974609375 115.21997451782227,96.50243377685547 114.73380661010742,103.43030548095703 121.17551040649414,106.04344177246094 114.42995071411133,107.7450180053711 113.94378280639648,114.61211395263672 110.23677444458008,108.77812957763672 103.5519905090332,110.41893005371094 107.98826217651367,105.07111358642578 " id="XMLID_5_" class="st1"/>
    <polygon stroke="null" fill="#f7de28" points="139.10287857055664,64.41548919677734 132.29655075073242,63.26083755493164 129.0149269104004,69.3379135131836 128.04260635375977,62.47081756591797 121.23627090454102,61.255401611328125 127.43489456176758,58.21686553955078 126.46255874633789,51.34978103637695 131.32422256469727,56.332977294921875 137.52283096313477,53.29444122314453 134.30198287963867,59.432281494140625 " id="XMLID_4_" class="st1"/>
    <polygon stroke="null" fill="#f7de28" points="124.63943862915039,95.40856170654297 126.76641464233398,88.84532165527344 121.17551040649414,84.773681640625 128.10336685180664,84.773681640625 130.23034286499023,78.1496696472168 132.35731887817383,84.773681640625 139.2851905822754,84.773681640625 133.69427108764648,88.84532165527344 135.82124710083008,95.40856170654297 130.23034286499023,91.39768981933594 " id="XMLID_3_" class="st1"/>
    <polygon stroke="null" fill="#f7de28" points="104.64587020874023,35.30629920959473 110.96602249145508,38.16252136230469 115.70614242553711,33.118553161621094 114.85534286499023,39.98564338684082 121.1147346496582,42.96341514587402 114.30841445922852,44.30036926269531 113.45762252807617,51.16746520996094 110.11523818969727,45.09039115905762 103.30890274047852,46.427345275878906 107.98826217651367,41.32260704040527 " id="XMLID_2_" class="st1"/>
   </g>
  </g>
 </g>
</svg>