<svg width="60" height="60" xmlns="http://www.w3.org/2000/svg">

 <g>
  <title>background</title>
  <rect fill="none" id="canvas_background" height="402" width="582" y="-1" x="-1"/>
 </g>
 <g>
  <title>Layer 1</title>
  <path stroke="null" id="svg_1" d="m13.309692,14.512269l-0.758899,-4.555215l-2.724019,0c-0.406325,-1.566994 -1.820264,-2.733129 -3.513893,-2.733129c-2.009761,0 -3.644172,1.634411 -3.644172,3.644172s1.634411,3.644172 3.644172,3.644172c1.693629,0 3.107568,-1.166135 3.514804,-2.733129l1.17889,0l0.455522,2.733129l-0.03462,0l4.711004,23.701696c-2.245721,0.171276 -4.116092,1.900436 -4.336565,4.076007c-0.129368,1.280015 0.291534,2.561853 1.155203,3.514804c0.86458,0.955684 2.09631,1.505043 3.377237,1.505043l1.822086,0c0,3.014641 2.451617,5.466258 5.466258,5.466258s5.466258,-2.451617 5.466258,-5.466258l10.021474,0c0,3.014641 2.451617,5.466258 5.466258,5.466258s5.466258,-2.451617 5.466258,-5.466258l3.644172,0c0.503807,0 0.911043,-0.407236 0.911043,-0.911043s-0.407236,-0.911043 -0.911043,-0.911043l-3.963037,0c-0.752522,-2.119997 -2.772304,-3.644172 -5.147393,-3.644172s-4.394872,1.524175 -5.147393,3.644172l-10.659204,0c-0.752522,-2.119997 -2.772304,-3.644172 -5.147393,-3.644172s-4.394872,1.524175 -5.147393,3.644172l-2.140951,0c-0.767098,0 -1.505043,-0.329798 -2.02616,-0.904666c-0.525672,-0.582157 -0.772565,-1.331034 -0.693304,-2.109976c0.138479,-1.374764 1.408473,-2.450706 2.89074,-2.450706l0.720635,0c0.012755,0 0.022776,0 0.035531,0l35.525213,0c2.506279,-0.000911 4.544283,-2.038914 4.544283,-4.544283l0,-20.965834l-44.0216,0zm-6.996811,-1.822086c-1.00488,0 -1.822086,-0.817206 -1.822086,-1.822086s0.817206,-1.822086 1.822086,-1.822086s1.822086,0.817206 1.822086,1.822086s-0.817206,1.822086 -1.822086,1.822086zm38.263808,30.975464c2.009761,0 3.644172,1.634411 3.644172,3.644172s-1.634411,3.644172 -3.644172,3.644172s-3.644172,-1.634411 -3.644172,-3.644172s1.634411,-3.644172 3.644172,-3.644172zm-20.95399,0c2.009761,0 3.644172,1.634411 3.644172,3.644172s-1.634411,3.644172 -3.644172,3.644172s-3.644172,-1.634411 -3.644172,-3.644172s1.634411,-3.644172 3.644172,-3.644172zm31.886507,-8.187544c0,1.500488 -1.220798,2.721286 -2.721286,2.721286l-34.794556,0l-4.345675,-21.865033l41.861517,0l0,19.143748z"/>
 </g>
</svg>