<svg width="128" height="128" xmlns="http://www.w3.org/2000/svg">
 <title/>

 <g>
  <title>background</title>
  <rect fill="none" id="canvas_background" height="402" width="582" y="-1" x="-1"/>
 </g>
 <g>
  <title>Layer 1</title>
  <g stroke="null" id="svg_3">
   <path fill="#28a745" stroke="null" id="svg_1" d="m64,15.555534a48.444466,48.444466 0 1 0 48.444466,48.444466a48.497452,48.497452 0 0 0 -48.444466,-48.444466zm0,92.347263a43.902797,43.902797 0 1 1 43.902797,-43.902797a43.955783,43.955783 0 0 1 -43.902797,43.902797z"/>
   <path fill="#28a745" stroke="null" id="svg_2" d="m82.09098,47.43453l-28.37029,27.900984l-7.758684,-8.167434a2.270834,2.270834 0 0 0 -3.29271,3.126182l9.348268,9.840282a2.270834,2.270834 0 0 0 1.604723,0.703959l0.037847,0a2.270834,2.270834 0 0 0 1.589584,-0.650973l30.01286,-29.520846a2.270834,2.270834 0 1 0 -3.186738,-3.239724l0.015139,0.007569z"/>
  </g>
 </g>
</svg>