<svg width="295" height="295" xmlns="http://www.w3.org/2000/svg">
 <title/>
 <desc/>

 <g>
  <title>background</title>
  <rect fill="none" id="canvas_background" height="402" width="582" y="-1" x="-1"/>
 </g>
 <g>
  <title>Layer 1</title>
  <path id="Shape" fill="#000000" d="m147.421,0c-81.288,0 -147.421,66.133 -147.421,147.421c0,81.288 66.133,147.421 147.421,147.421c38.287,0 74.567,-14.609 102.159,-41.136c2.389,-2.296 2.464,-6.095 0.167,-8.483c-2.295,-2.388 -6.093,-2.464 -8.483,-0.167c-25.345,24.367 -58.672,37.786 -93.842,37.786c-74.672,0.001 -135.422,-60.749 -135.422,-135.421c0,-74.672 60.75,-135.421 135.421,-135.421c74.671,0 135.421,60.75 135.421,135.421c0,16.842 -3.052,33.273 -9.071,48.835c-1.195,3.091 0.341,6.565 3.432,7.761c3.092,1.193 6.565,-0.341 7.761,-3.432c6.555,-16.949 9.879,-34.836 9.879,-53.165c0,-81.287 -66.133,-147.42 -147.422,-147.42z"/>
  <path id="Shape" fill="#FB4A5E" d="m167.619,160.134c-2.37,-2.319 -6.168,-2.277 -8.485,0.09c-2.318,2.368 -2.277,6.167 0.09,8.485l47.236,46.236c1.168,1.143 2.683,1.712 4.197,1.712c1.557,0 3.113,-0.603 4.288,-1.803c2.318,-2.368 2.277,-6.167 -0.09,-8.485l-47.236,-46.235z"/>
  <path id="Shape" fill="#FB4A5E" d="m125.178,133.663c1.171,1.171 2.707,1.757 4.243,1.757c1.536,0 3.071,-0.586 4.243,-1.757c2.343,-2.343 2.343,-6.142 0,-8.485l-45.236,-45.236c-2.343,-2.343 -6.143,-2.343 -8.485,0c-2.343,2.343 -2.343,6.142 0,8.485l45.235,45.236z"/>
  <path id="Shape" fill="#FB4A5E" d="m214.9,79.942c-2.343,-2.343 -6.143,-2.343 -8.485,0l-126.473,126.473c-2.343,2.343 -2.343,6.142 0,8.485c1.171,1.171 2.707,1.757 4.243,1.757c1.536,0 3.071,-0.586 4.243,-1.757l126.472,-126.472c2.343,-2.344 2.343,-6.142 0,-8.486z"/>
 </g>
</svg>