<svg width="32" height="32" xmlns="http://www.w3.org/2000/svg">
 <title/>
 <desc/>

 <g>
  <title>background</title>
  <rect fill="none" id="canvas_background" height="402" width="582" y="-1" x="-1"/>
 </g>
 <g>
  <title>Layer 1</title>
  <path fill="#000000" id="folder-upload" d="m16,27l-12.00703,0c-0.54686,0 -0.99297,-0.44405 -0.99297,-0.9918l0,-11.0082l27,0l0,10.99913c0,0.55624 -0.44457,1.00087 -0.99297,1.00087l-12.00703,0l0,-9l3.25,3.25l0.75,-0.75l-4.5,-4.5l-4.5,4.5l0.75,0.75l3.25,-3.25l0,9l0,0zm-13,-13l0,-6.0082c0,-0.53649 0.44401,-0.9918 0.99173,-0.9918l10.40829,0l1.95997,4l12.63703,0c0.54915,0 1.00298,0.44811 1.00298,1.00087l0,1.99913l-27,0l0,0zm14,-4l-2,-4l-10.99724,0c-1.10609,0 -2.00276,0.88967 -2.00276,1.99116l0,18.01769c0,1.09968 0.89971,1.99115 1.99329,1.99115l25.01342,0c1.10086,0 1.99329,-0.89262 1.99329,-1.99509l0,-14.00982c0,-1.10186 -0.89706,-1.99509 -2.00586,-1.99509l-11.99414,0l0,0z"/>
 </g>
</svg>