<svg width="50" height="50" xmlns="http://www.w3.org/2000/svg">

 <g>
  <title>background</title>
  <rect fill="none" id="canvas_background" height="402" width="582" y="-1" x="-1"/>
 </g>
 <g>
  <title>Layer 1</title>
  <g stroke="null" id="svg_4">
   <g stroke="null" id="svg_5">
    <g id="svg_6">
     <path stroke="null" id="svg_1" d="m24.999999,4.716215c-11.183972,0 -20.283785,9.099813 -20.283785,20.283785s9.099813,20.283785 20.283785,20.283785s20.283785,-9.099813 20.283785,-20.283785s-9.099813,-20.283785 -20.283785,-20.283785zm0,38.877255c-10.252608,0 -18.59347,-8.340862 -18.59347,-18.59347s8.340862,-18.59347 18.59347,-18.59347s18.59347,8.340862 18.59347,18.59347s-8.340862,18.59347 -18.59347,18.59347z"/>
     <path stroke="null" id="svg_2" d="m26.588152,24.774848l0,-12.816889l-1.574847,0l0,12.816889c-0.468517,0.272448 -0.787423,0.774824 -0.787423,1.35673c0,0.140161 0.02441,0.273236 0.058269,0.403161l-6.914364,6.914364l1.113417,1.113417l6.914364,-6.914364c0.129925,0.033859 0.262999,0.058269 0.403161,0.058269c0.869315,0 1.574847,-0.704744 1.574847,-1.574847c0,-0.581118 -0.318906,-1.083494 -0.787423,-1.35673z"/>
    </g>
   </g>
  </g>
 </g>
</svg>