<svg width="512" height="512" xmlns="http://www.w3.org/2000/svg">

 <g>
  <title>background</title>
  <rect fill="none" id="canvas_background" height="402" width="582" y="-1" x="-1"/>
 </g>
 <g>
  <title>Layer 1</title>
  <g stroke="null" id="svg_4">
   <path stroke="null" id="svg_2" fill="#000000" d="m256.000006,73.629623c-100.713321,0 -182.370384,81.657063 -182.370384,182.370384c0,100.714045 81.657063,182.370384 182.370384,182.370384s182.370384,-81.656339 182.370384,-182.370384c0,-100.713321 -81.657063,-182.370384 -182.370384,-182.370384zm0,349.543236c-92.179545,0 -167.172852,-74.993307 -167.172852,-167.172852c0,-92.178821 74.993307,-167.172852 167.172852,-167.172852s167.172852,74.994031 167.172852,167.172852c0,92.180268 -74.992583,167.172852 -167.172852,167.172852z"/>
   <polygon stroke="null" id="svg_3" points="256,271.19754791259766 164.8148193359375,271.19754791259766 164.8148193359375,286.3950729370117 271.1975402832031,286.3950729370117 271.1975402832031,135.04357147216797 256,135.04357147216797 " fill="#000000"/>
  </g>
 </g>
</svg>