<?xml version="1.0" standalone="no"?>
<!DOCTYPE svg PUBLIC "-//W3C//DTD SVG 20010904//EN"
 "http://www.w3.org/TR/2001/REC-SVG-20010904/DTD/svg10.dtd">
<svg version="1.0" xmlns="http://www.w3.org/2000/svg"
 width="512.000000pt" height="512.000000pt" viewBox="0 0 512.000000 512.000000"
 preserveAspectRatio="xMidYMid meet">
<metadata>
Created by potrace 1.15, written by Peter Selinger 2001-2017
</metadata>
<g transform="translate(0.000000,512.000000) scale(0.100000,-0.100000)"
fill="#000000" stroke="none">
<path d="M980 3345 l0 -1185 690 0 689 0 -14 -40 c-11 -32 -45 -187 -45 -206
0 -2 -296 -4 -658 -4 l-657 0 -263 -525 c-144 -289 -262 -527 -262 -530 0 -3
511 -5 1135 -5 l1134 0 73 -49 c405 -274 923 -280 1325 -15 l97 64 218 0 c120
0 218 2 218 5 0 3 -36 76 -79 163 l-79 158 38 78 c73 148 109 293 117 466 12
253 -52 492 -190 703 -65 99 -189 233 -271 292 l-56 40 0 888 0 887 -1580 0
-1580 0 0 -1185z m2880 235 c0 -374 -3 -680 -7 -680 -5 0 -40 9 -80 20 -449
119 -949 -50 -1229 -415 l-57 -75 -613 0 -614 0 0 915 0 915 1300 0 1300 0 0
-680z m-176 -935 c168 -45 298 -119 416 -235 496 -490 279 -1309 -397 -1502
-104 -30 -331 -32 -438 -5 -110 29 -279 116 -364 189 -136 115 -247 291 -293
463 -28 105 -30 316 -5 418 89 357 371 621 734 687 69 13 278 4 347 -15z"/>
<path d="M3341 2294 c-77 -20 -129 -45 -185 -88 l-49 -38 -53 53 c-49 49 -56
52 -81 43 l-28 -9 -3 -186 c-2 -150 0 -188 12 -198 9 -8 69 -11 197 -9 l184 3
9 28 c9 25 5 32 -45 83 l-54 55 27 24 c51 44 134 67 223 63 67 -4 90 -10 143
-38 142 -75 215 -233 178 -381 -56 -218 -285 -332 -480 -241 -35 17 -82 49
-104 71 -22 23 -46 41 -54 41 -22 0 -118 -103 -118 -127 0 -27 84 -102 160
-142 80 -43 160 -61 265 -61 240 1 439 153 509 389 21 71 21 220 0 292 -54
183 -200 327 -380 373 -76 20 -201 20 -273 0z"/>
<path d="M3477 1994 c-4 -4 -7 -65 -7 -135 l0 -128 -87 -3 -88 -3 0 -40 0 -40
138 -3 137 -3 -2 178 -3 178 -40 3 c-23 2 -44 0 -48 -4z"/>
</g>
</svg>
