<svg width="25" height="25" xmlns="http://www.w3.org/2000/svg">

 <g>
  <title>background</title>
  <rect fill="none" id="canvas_background" height="27" width="27" y="-1" x="-1"/>
 </g>
 <g>
  <title>Layer 1</title>
  <path fill="#7f7f7f" stroke="null" id="svg_1" d="m0.203973,12.437489l0.004571,0l0,-0.004395l-0.004571,0.004395zm23.987939,-0.465877c0,-0.135368 -0.058015,-0.256848 -0.150136,-0.341409l-11.175432,-11.180178c-0.082803,-0.087901 -0.199009,-0.143455 -0.328575,-0.146971l0,0.016701c-0.129567,0.003164 -0.245772,0.058894 -0.328575,0.146795l-11.175432,11.179475c-0.091945,0.08421 -0.150136,0.206392 -0.150136,0.341057c0,0.257903 0.208854,0.465877 0.465877,0.465877l2.648821,0l0,2.202633l0,10.131339l6.16681,0l0,-7.114739c0,-0.261419 0.211491,-0.473964 0.472558,-0.473964l3.792242,0c0.261946,0 0.47414,0.212546 0.47414,0.473964l0,7.116145l6.171557,0l0,-10.131515l0,-2.215818l0,-0.003516l2.648821,0c0.258958,0 0.46746,-0.208326 0.46746,-0.465877m0.679829,0.482051l-0.004747,-0.004395l0,0.004395l0.004747,0z"/>
 </g>
</svg>