<svg width="10" height="10" xmlns="http://www.w3.org/2000/svg">

 <g>
  <title>background</title>
  <rect fill="none" id="canvas_background" height="12" width="12" y="-1" x="-1"/>
 </g>
 <g>
  <title>Layer 1</title>
  <g stroke="null" id="svg_4">
   <g id="svg_5">
    <polygon fill="#484848" stroke="null" id="svg_2" points="5.129995822906494,5.766040697693825 5.856378078460693,5.766040697693825 5.7880940437316895,6.531888380646706 5.129995822906494,6.709855929017067 5.129220962524414,6.709855929017067 4.47170352935791,6.531888380646706 4.428370952606201,6.040733233094215 3.8354642391204834,6.040733233094215 3.920192241668701,6.988416567444801 5.129220962524414,7.323850527405739 5.129995822906494,7.323464289307594 6.339603900909424,6.988416567444801 6.50132417678833,5.176227942109108 5.129995822906494,5.176227942109108 4.350800514221191,5.176227942109108 4.296829700469971,4.572101011872292 5.129995822906494,4.572101011872292 6.555102348327637,4.572101011872292 6.607911109924316,3.9820951372385025 5.129995822906494,3.9820951372385025 3.651885747909546,3.9820951372385025 3.8112831115722656,5.766040697693825 "/>
    <path fill="#484848" stroke="null" id="svg_3" d="m5,0.23662c-2.630846,0 -4.763573,2.133113 -4.763573,4.763573c0,2.630846 2.132533,4.763186 4.763573,4.763186c2.631233,0 4.763573,-2.13234 4.763573,-4.763186c0,-2.63046 -2.132533,-4.763573 -4.763573,-4.763573zm1.329932,1.470759l0.300033,0l0,0.601032l0.421709,0l0,0.296164l-0.721548,0l0,-0.897196l-0.000193,0zm-1.159313,0l0.312413,0l0.192284,0.315121l0.192284,-0.315121l0.3128,0l0,0.897389l-0.298872,0l0,-0.444729l-0.206212,0.318797l-0.004836,0l-0.206599,-0.318797l0,0.444729l-0.293262,0l0,-0.897389zm-0.959485,0l0.828136,0l0,0.297711l-0.264439,0l0,0.599678l-0.299646,0l0,-0.599678l-0.264052,0l0,-0.297711zm-1.004558,0l0.299839,0l0,0.296551l0.274304,0l0,-0.296551l0.300033,0l0,0.897389l-0.300033,0l0,-0.300419l-0.274304,0l0,0.300419l-0.299839,0l0,-0.897389zm3.849934,6.10279l-1.927675,0.534681l-1.925547,-0.535068l-0.42906,-4.811354l4.711343,0l-0.42906,4.811741z"/>
   </g>
  </g>
 </g>
</svg>