<svg width="64" height="64" xmlns="http://www.w3.org/2000/svg">

 <g>
  <title>background</title>
  <rect fill="none" id="canvas_background" height="402" width="582" y="-1" x="-1"/>
 </g>
 <g>
  <title>Layer 1</title>
  <g stroke="null" id="svg_10">
   <path stroke="null" id="svg_2" d="m56.730923,19.384379c-0.235256,-0.156838 -0.548931,-0.235256 -0.784188,-0.078419l-15.997429,5.72457l-11.213884,-4.077776c0.62735,-1.568375 0.941025,-2.979913 0.941025,-4.156195c0,-2.117307 -0.784188,-3.999357 -2.274144,-5.489314c-1.489957,-1.489957 -3.450426,-2.274144 -5.489314,-2.274144c-4.313032,0 -7.763458,3.450426 -7.763458,7.763458c0,1.489957 0.548931,3.293588 1.489957,5.489314l-8.155552,2.744657c-0.313675,0.156838 -0.548931,0.470513 -0.548931,0.784188l0,28.230756c0,0.313675 0.156838,0.548931 0.392094,0.705769c0.156838,0.078419 0.313675,0.156838 0.470513,0.156838c0.078419,0 0.235256,0 0.313675,-0.078419l15.997429,-5.646151l15.526916,5.72457c0.156838,0.078419 0.392094,0.078419 0.548931,0l16.311104,-5.802989c0.313675,-0.156838 0.548931,-0.470513 0.548931,-0.784188l0,-28.230756c0.078419,-0.313675 -0.078419,-0.548931 -0.313675,-0.705769zm-34.817933,-8.782902c1.646794,0 3.136751,0.62735 4.234613,1.803632c0,0 0,0 0,0c1.176282,1.097863 1.803632,2.666238 1.803632,4.234613c0,1.097863 -0.392094,2.587819 -1.176282,4.313032c-1.411538,3.136751 -3.764101,6.430339 -4.861964,7.920296c-0.156838,-0.156838 -0.235256,-0.313675 -0.392094,-0.548931c-1.019444,-1.411538 -2.666238,-3.764101 -3.84252,-6.195083c-1.176282,-2.274144 -1.725213,-4.156195 -1.725213,-5.567732c-0.078419,-3.215169 2.666238,-5.959826 5.959826,-5.959826zm33.484814,37.092077l-15.448497,5.489314l-15.526916,-5.72457c-0.078419,0 -0.235256,-0.078419 -0.313675,-0.078419c-0.078419,0 -0.235256,0 -0.313675,0.078419l-15.134822,5.410895l0,-26.427125l7.841877,-2.744657c0,0 0,0 0,0.078419c0.078419,0.078419 0.078419,0.156838 0.156838,0.235256c0.078419,0.156838 0.156838,0.313675 0.235256,0.470513c0.078419,0.078419 0.078419,0.156838 0.156838,0.235256c0.078419,0.156838 0.156838,0.313675 0.235256,0.470513c0.078419,0.078419 0.078419,0.156838 0.156838,0.235256c0.078419,0.156838 0.156838,0.313675 0.235256,0.392094c0.078419,0.078419 0.078419,0.156838 0.156838,0.235256c0.078419,0.156838 0.156838,0.235256 0.235256,0.392094c0.078419,0.078419 0.078419,0.156838 0.156838,0.235256c0.078419,0.156838 0.156838,0.235256 0.235256,0.392094c0.078419,0.078419 0.078419,0.156838 0.156838,0.235256c0.078419,0.156838 0.156838,0.235256 0.235256,0.392094c0.078419,0.078419 0.078419,0.156838 0.156838,0.235256c0.078419,0.156838 0.156838,0.235256 0.235256,0.392094c0.078419,0.078419 0.078419,0.156838 0.156838,0.156838c0.078419,0.156838 0.156838,0.235256 0.235256,0.313675c0,0.078419 0.078419,0.078419 0.078419,0.156838c0.078419,0.156838 0.156838,0.235256 0.235256,0.313675c0,0 0.078419,0.078419 0.078419,0.078419c0.078419,0.078419 0.156838,0.235256 0.235256,0.313675c0,0 0.078419,0.078419 0.078419,0.078419c0.078419,0.078419 0.156838,0.235256 0.235256,0.313675c0,0 0,0 0,0c0.078419,0.078419 0.156838,0.156838 0.235256,0.235256c0,0 0,0 0,0c0.156838,0.235256 0.313675,0.392094 0.313675,0.470513c0.156838,0.235256 0.392094,0.313675 0.705769,0.313675c0.235256,0 0.470513,-0.156838 0.705769,-0.313675c0,0 0.078419,-0.078419 0.235256,-0.235256c0,0 0.078419,-0.078419 0.078419,-0.078419c0.078419,-0.078419 0.078419,-0.078419 0.156838,-0.156838c0,0 0.078419,-0.078419 0.078419,-0.078419c0.078419,-0.078419 0.078419,-0.156838 0.156838,-0.235256c0,-0.078419 0.078419,-0.078419 0.078419,-0.156838c0.078419,-0.078419 0.156838,-0.156838 0.156838,-0.235256c0.078419,-0.078419 0.078419,-0.156838 0.156838,-0.235256c0.078419,-0.078419 0.156838,-0.156838 0.235256,-0.313675c0.078419,-0.078419 0.078419,-0.156838 0.156838,-0.235256c0.078419,-0.078419 0.156838,-0.156838 0.235256,-0.313675c0.078419,-0.078419 0.156838,-0.156838 0.156838,-0.235256c0.078419,-0.078419 0.156838,-0.235256 0.235256,-0.313675c0.078419,-0.078419 0.156838,-0.235256 0.235256,-0.313675c0.078419,-0.078419 0.156838,-0.235256 0.235256,-0.313675c0.078419,-0.078419 0.156838,-0.235256 0.235256,-0.313675c0.078419,-0.156838 0.156838,-0.235256 0.235256,-0.392094c0.078419,-0.078419 0.156838,-0.235256 0.235256,-0.313675c0.078419,-0.156838 0.156838,-0.235256 0.235256,-0.392094c0.078419,-0.156838 0.156838,-0.235256 0.235256,-0.392094c0.078419,-0.156838 0.156838,-0.235256 0.235256,-0.392094c0.078419,-0.156838 0.156838,-0.235256 0.235256,-0.392094c0.078419,-0.156838 0.156838,-0.235256 0.235256,-0.392094c0.078419,-0.156838 0.156838,-0.235256 0.235256,-0.392094c0.078419,-0.156838 0.156838,-0.235256 0.235256,-0.392094c0.078419,-0.156838 0.156838,-0.235256 0.235256,-0.392094c0.078419,-0.156838 0.156838,-0.313675 0.235256,-0.392094c0.078419,-0.156838 0.156838,-0.235256 0.156838,-0.392094c0,0 0,0 0,-0.078419l11.605978,4.234613c0.156838,0.078419 0.392094,0.078419 0.548931,0l15.134822,-5.410895l0,26.583962z"/>
   <path stroke="null" id="svg_3" d="m48.177467,40.086934c0.156838,0.078419 0.392094,0.078419 0.548931,0.078419c0.470513,0 0.941025,-0.156838 1.333119,-0.392094c0.548931,-0.392094 0.941025,-0.941025 1.097863,-1.568375c0.156838,-0.62735 0,-1.333119 -0.313675,-1.88205c-0.392094,-0.548931 -0.941025,-0.941025 -1.568375,-1.097863c-1.333119,-0.313675 -2.744657,0.548931 -3.058332,1.88205l0,0c-0.156838,0.62735 0,1.333119 0.313675,1.88205c0.470513,0.548931 1.019444,0.941025 1.646794,1.097863zm-0.235256,-2.666238c0.078419,-0.470513 0.548931,-0.705769 0.941025,-0.62735c0.235256,0.078419 0.392094,0.156838 0.470513,0.392094c0.078419,0.156838 0.156838,0.392094 0.078419,0.62735c-0.078419,0.235256 -0.156838,0.392094 -0.392094,0.470513c-0.156838,0.078419 -0.392094,0.156838 -0.62735,0.078419c-0.235256,-0.078419 -0.392094,-0.156838 -0.470513,-0.392094c0,-0.156838 0,-0.313675 0,-0.548931z"/>
   <path stroke="null" id="svg_4" d="m15.633678,37.499114l-0.548931,0.313675l-0.313675,-0.548931c-0.235256,-0.392094 -0.784188,-0.548931 -1.176282,-0.235256c-0.392094,0.235256 -0.548931,0.784188 -0.235256,1.176282l0.313675,0.548931l-0.548931,0.313675c-0.392094,0.235256 -0.548931,0.784188 -0.235256,1.176282c0.078419,0.313675 0.392094,0.392094 0.62735,0.392094c0.156838,0 0.313675,-0.078419 0.470513,-0.156838l0.548931,-0.313675l0.313675,0.548931c0.156838,0.235256 0.470513,0.392094 0.705769,0.392094c0.156838,0 0.313675,-0.078419 0.470513,-0.156838c0.392094,-0.235256 0.548931,-0.784188 0.235256,-1.176282l-0.313675,-0.548931l0.548931,-0.313675c0.392094,-0.235256 0.548931,-0.784188 0.235256,-1.176282c-0.156838,-0.392094 -0.705769,-0.470513 -1.097863,-0.235256z"/>
   <path stroke="null" id="svg_5" d="m23.710811,39.851677c-1.019444,0 -2.352563,-0.156838 -3.215169,-0.392094c-0.470513,-0.078419 -0.941025,0.235256 -1.019444,0.705769c-0.078419,0.470513 0.235256,0.941025 0.705769,1.019444c0.862606,0.156838 2.274144,0.392094 3.528845,0.392094c0,0 0,0 0,0c0.470513,0 0.862606,-0.392094 0.862606,-0.862606c0,-0.470513 -0.392094,-0.862606 -0.862606,-0.862606z"/>
   <path stroke="null" id="svg_6" d="m30.14115,36.871764c-0.548931,0.784188 -1.176282,1.411538 -1.960469,1.88205c-0.235256,0.156838 -0.548931,0.313675 -0.862606,0.470513c-0.470513,0.156838 -0.62735,0.705769 -0.470513,1.176282c0.156838,0.313675 0.470513,0.548931 0.784188,0.548931c0.078419,0 0.235256,0 0.313675,-0.078419c0.392094,-0.156838 0.705769,-0.313675 1.019444,-0.548931c0.941025,-0.62735 1.725213,-1.333119 2.430982,-2.274144c0.313675,-0.392094 0.235256,-0.941025 -0.156838,-1.176282c-0.235256,-0.470513 -0.784188,-0.392094 -1.097863,0z"/>
   <path stroke="null" id="svg_7" d="m36.414652,31.225613c-0.862606,0 -1.333119,0.235256 -1.803632,0.392094c-1.097863,0.470513 -2.038888,1.489957 -2.274144,1.803632c-0.313675,0.392094 -0.235256,0.941025 0.078419,1.2547c0.156838,0.156838 0.392094,0.235256 0.548931,0.235256c0.235256,0 0.470513,-0.078419 0.62735,-0.313675c0.392094,-0.470513 1.019444,-1.019444 1.646794,-1.333119c0.470513,-0.156838 0.62735,-0.235256 1.176282,-0.313675c0.470513,0 0.862606,-0.392094 0.862606,-0.862606c0,-0.470513 -0.392094,-0.862606 -0.862606,-0.862606z"/>
   <path stroke="null" id="svg_8" d="m39.629821,32.558732c-0.156838,0.470513 0,0.941025 0.470513,1.176282c0.862606,0.392094 2.117307,1.019444 3.058332,1.725213c0.156838,0.078419 0.313675,0.156838 0.470513,0.156838c0.313675,0 0.548931,-0.156838 0.705769,-0.392094c0.235256,-0.392094 0.156838,-0.941025 -0.235256,-1.176282c-1.097863,-0.705769 -2.352563,-1.411538 -3.372007,-1.803632c-0.392094,-0.313675 -0.862606,-0.078419 -1.097863,0.313675z"/>
   <path stroke="null" id="svg_9" d="m21.985598,18.757029c1.489957,0 2.666238,-1.176282 2.666238,-2.666238s-1.176282,-2.666238 -2.666238,-2.666238c-1.489957,0 -2.666238,1.176282 -2.666238,2.666238s1.2547,2.666238 2.666238,2.666238zm0,-3.607263c0.470513,0 0.941025,0.392094 0.941025,0.941025c0,0.470513 -0.392094,0.941025 -0.941025,0.941025c-0.470513,0 -0.941025,-0.392094 -0.941025,-0.941025c0.078419,-0.470513 0.470513,-0.941025 0.941025,-0.941025z"/>
  </g>
 </g>
</svg>