<?xml version="1.0" ?><!DOCTYPE svg  PUBLIC '-//W3C//DTD SVG 1.1//EN'  'http://www.w3.org/Graphics/SVG/1.1/DTD/svg11.dtd'><svg enable-background="new 0 0 32 32" id="Layer_1" version="1.1" viewBox="0 0 32 32" xml:space="preserve" xmlns="http://www.w3.org/2000/svg" xmlns:xlink="http://www.w3.org/1999/xlink"><path d="M7.5,1v5h-4c-0.6,0-1,0.4-1,1v24c0,0.6,0.4,1,1,1h20c0.6,0,1-0.4,1-1v-5h4c0.6,0,1-0.4,1-1V5.8c0-0.3-0.1-0.5-0.3-0.7  l-4.8-4.8C24.3,0.1,24,0,23.8,0H8.5C7.9,0,7.5,0.4,7.5,1z M22.5,30h-18V8H11v6c0,0.4,0.2,0.7,0.5,0.9c0.3,0.2,0.7,0.2,1,0l2.4-1.6  l2.4,1.6c0.2,0.1,0.4,0.2,0.6,0.2c0.2,0,0.3,0,0.5-0.1c0.3-0.2,0.5-0.5,0.5-0.9V8.7l3.5,3.5V30z M13,8h4v4.1l-1.4-1  C15.4,11.1,15.2,11,15,11s-0.4,0.1-0.6,0.2l-1.4,1V8z M23.3,2l4.2,4.2V24h-3V11.8c0-0.3-0.1-0.5-0.3-0.7l-4.8-4.8  C19.3,6.1,19,6,18.8,6H18h-6H9.5V2H23.3z"/></svg>