<svg width="60" height="60" xmlns="http://www.w3.org/2000/svg">
 <title/>
 <desc/>

 <g>
  <title>background</title>
  <rect fill="none" id="canvas_background" height="402" width="582" y="-1" x="-1"/>
 </g>
 <g>
  <title>Layer 1</title>
  <path stroke="null" id="price-tag" d="m26.923098,26.966574c-0.320733,0.320733 -0.320733,0.839155 0,1.159888l4.921732,4.921732c0.159956,0.159956 0.36995,0.240345 0.579944,0.240345c0.209994,0 0.419988,-0.080388 0.579944,-0.240345c0.320733,-0.320733 0.320733,-0.839155 0,-1.159888l-4.921732,-4.921732c-0.320733,-0.320733 -0.839155,-0.320733 -1.159888,0l0,0zm-2.121266,3.281154c-0.320733,-0.320733 -0.839155,-0.320733 -1.159888,0c-0.320733,0.320733 -0.320733,0.839155 0,1.159888l4.921732,4.921732c0.159956,0.159956 0.36995,0.240345 0.579944,0.240345c0.209994,0 0.419988,-0.080388 0.579944,-0.240345c0.320733,-0.320733 0.320733,-0.839155 0,-1.159888l-4.921732,-4.921732zm-3.281154,3.281154c-0.320733,-0.320733 -0.839155,-0.320733 -1.159888,0c-0.320733,0.320733 -0.320733,0.839155 0,1.159888l4.921732,4.921732c0.159956,0.159956 0.36995,0.240345 0.579944,0.240345c0.209994,0 0.419988,-0.080388 0.579944,-0.240345c0.320733,-0.320733 0.320733,-0.839155 0,-1.159888l-4.921732,-4.921732zm15.486228,-1.880922l-8.683575,-8.683575l-11.964729,11.964729l8.683575,8.683575l11.964729,-11.964729zm-8.103631,-10.423407l9.843463,9.843463c0.320733,0.320733 0.320733,0.839155 0,1.159888l-13.124618,13.124618c-0.159956,0.159956 -0.36995,0.240345 -0.579944,0.240345c-0.209994,0 -0.419988,-0.080388 -0.579944,-0.240345l-9.843463,-9.843463c-0.320733,-0.320733 -0.320733,-0.839155 0,-1.159888l13.124618,-13.124618c0.320733,-0.320733 0.839155,-0.320733 1.159888,0l0,0zm19.086475,14.176228c-0.392098,-0.230501 -0.894115,-0.098435 -1.122975,0.292843l-9.402148,16.036642c-0.679199,1.175474 -2.18771,1.579876 -3.32627,0.923645l-1.831704,-1.186958c-0.378973,-0.246907 -0.887552,-0.137808 -1.133639,0.241985c-0.246907,0.380614 -0.138629,0.888373 0.241985,1.134459l1.866977,1.209926c0.643927,0.371591 1.348554,0.547953 2.044159,0.547953c1.418279,0 2.798825,-0.734158 3.555951,-2.0458l9.399687,-16.032541c0.228861,-0.390457 0.098435,-0.892474 -0.292023,-1.122155l0,0zm6.582816,-25.900612l0,13.124618c0,2.537973 -0.807164,4.428738 -2.70121,6.321964l-24.360931,24.395383c-0.775173,0.775173 -1.805455,1.200903 -2.901361,1.200903c-1.095906,0 -2.125368,-0.42573 -2.8989,-1.200903l-15.081006,-15.080186c-0.775173,-0.775173 -1.201723,-1.805455 -1.201723,-2.901361c0,-1.095906 0.42655,-2.125368 1.201723,-2.89972l21.306176,-21.277466c-5.5714,-1.266526 -9.028917,-1.351836 -10.041153,-1.055711c0.42737,0.437214 1.758699,1.365781 4.971769,2.632306c0.421628,0.166519 0.628341,0.642286 0.462643,1.063914c-0.166519,0.421628 -0.643106,0.62588 -1.063914,0.462643c-6.6509,-2.621642 -6.262083,-4.075194 -6.115252,-4.622326c0.304327,-1.140201 1.929319,-1.519995 5.25805,-1.228792c2.711054,0.237063 6.210405,0.905599 9.853307,1.880922c3.642902,0.976143 7.006085,2.146695 9.471872,3.29756c3.030966,1.413357 4.245814,2.552738 3.939846,3.69376c-0.295304,1.100827 -1.830064,1.235355 -2.334541,1.27965c-0.023788,0.002461 -0.048397,0.003281 -0.072185,0.003281c-0.420808,0 -0.778454,-0.322373 -0.816187,-0.748923c-0.040194,-0.451159 0.293663,-0.848999 0.745642,-0.888373c0.349443,-0.030351 0.581585,-0.077927 0.731697,-0.120582c-0.351084,-0.366669 -1.239456,-0.93841 -2.660196,-1.61925c-0.297765,0.502017 -0.459362,1.07868 -0.459362,1.669287c0,1.809557 1.471598,3.281154 3.281154,3.281154c1.809557,0 3.281154,-1.471598 3.281154,-3.281154c0,-1.809557 -1.471598,-3.281154 -3.281154,-3.281154c-0.45362,0 -0.820289,-0.366669 -0.820289,-0.820289c0,-0.45362 0.366669,-0.820289 0.820289,-0.820289c2.714335,0 4.921732,2.207397 4.921732,4.921732c0,2.714335 -2.207397,4.921732 -4.921732,4.921732c-2.714335,0 -4.921732,-2.207397 -4.921732,-4.921732c0,-0.822749 0.216556,-1.624171 0.602912,-2.339463c-1.962951,-0.82439 -4.596077,-1.747215 -7.933011,-2.64215c-0.351904,-0.094333 -0.690683,-0.180463 -1.029462,-0.266594l-22.018187,21.987016c-0.465104,0.464283 -0.721034,1.082781 -0.721034,1.739012c0,0.657871 0.25593,1.275549 0.721034,1.740652l15.081006,15.081006c0.929387,0.929387 2.550277,0.929387 3.479664,0l24.360931,-24.395383c1.598742,-1.597922 2.221342,-3.045732 2.221342,-5.162076l0,-13.124618c0,-1.356757 -1.104108,-2.460866 -2.460866,-2.460866l-13.124618,0c-2.116345,0 -3.564154,0.622599 -5.162076,2.220521c-0.320733,0.320733 -0.839155,0.320733 -1.159888,0c-0.320733,-0.320733 -0.320733,-0.839155 0,-1.159888c1.893226,-1.894046 3.783991,-2.70121 6.321964,-2.70121l13.124618,0c2.261536,0 4.101443,1.839907 4.101443,4.101443l0,0z"/>
 </g>
</svg>