<svg width="512" height="512" xmlns="http://www.w3.org/2000/svg">

 <g>
  <title>background</title>
  <rect fill="none" id="canvas_background" height="402" width="582" y="-1" x="-1"/>
 </g>
 <g>
  <title>Layer 1</title>
  <g stroke="null" id="svg_5">
   <path fill="#000000" stroke="null" id="svg_2" fill-rule="evenodd" d="m438.458008,210.96005c-2.350647,-12.975603 -9.971472,-21.608165 -23.976076,-27.177894c-14.957639,-5.913305 -30.790621,-7.45767 -46.109101,-8.95024l-6.874109,-0.686289c-0.59133,-0.060428 -1.183524,-0.094095 -1.767949,-0.094095c-5.817483,0 -9.850616,3.124124 -10.769121,8.341644c-0.506731,2.917806 -0.043163,5.397077 1.363081,7.371344c1.700615,2.38604 4.823012,3.999466 9.0193,4.668489c4.857542,0.754486 9.758248,1.277619 14.649457,1.801616c5.629293,0.610322 11.25945,1.210285 16.828316,2.171089c23.530636,4.076296 29.289418,10.606828 30.800116,34.918712c0.179557,2.994636 0.514501,5.972006 0.840811,8.941607c0.232216,2.059729 0.463569,4.110826 0.643126,6.170555c2.738249,31.194624 4.694387,67.982286 -1.45027,104.28307c-2.557828,15.044828 -13.163793,24.765956 -27.238322,24.765956l-2.90831,-0.017265c-18.802582,0 -37.827885,1.544365 -56.227326,3.036935c-18.346783,1.485664 -37.312521,3.021397 -56.00288,3.021397c-4.797114,0 -9.585596,-0.094095 -14.387027,-0.316815c-0.948719,-0.0423 -1.880172,-0.06906 -2.797813,-0.06906c-14.292069,0 -26.070336,5.285717 -37.072536,16.631493c-10.559349,10.898609 -22.191726,22.191726 -36.600335,35.511769l-0.913325,0.847718c-2.802129,2.609623 -5.977186,5.561959 -9.431074,5.561959c-0.651758,0 -1.313013,-0.113087 -1.952685,-0.327174c-3.638625,-1.236183 -3.51,-4.402606 -3.364109,-8.074898c0.064744,-1.579759 0.129488,-3.201817 -0.14589,-4.677122c-0.356525,-1.922471 -0.579245,-3.870841 -0.806281,-5.809714c-0.197686,-1.708384 -0.394508,-3.407272 -0.678519,-5.098391c-5.321111,-31.99141 -5.66814,-32.316857 -36.926645,-34.815121l-3.2821,-0.256387c-13.881159,-1.073891 -26.99402,-2.085627 -35.326168,-16.631493c-4.860995,-8.471133 -5.467001,-17.051036 -6.100631,-26.131627c-0.163155,-2.281586 -0.322858,-4.572668 -0.55421,-6.855117c-3.123261,-30.585166 -3.540213,-63.297394 -1.360492,-106.094182c1.016916,-19.926542 9.766017,-28.807721 28.357965,-28.807721c1.982036,0 4.067663,0.102727 6.260334,0.300413c2.115841,0.189053 4.226502,0.437671 6.33371,0.686289c4.229955,0.498099 8.606664,1.013463 13.000638,1.021232c6.676423,0 10.7743,-3.673155 10.958174,-9.834214c0.167472,-5.603396 -3.277784,-9.406039 -9.211806,-10.169158l-2.46287,-0.317678c-7.671757,-0.995334 -15.600765,-2.025199 -23.402011,-2.025199c-6.834399,0 -12.841799,0.789879 -18.356279,2.429203c-16.858529,4.985304 -27.039773,15.69486 -30.257992,31.836887c-0.901239,4.523462 -1.609109,9.148789 -2.15814,14.142726c-1.522784,13.94504 -1.463219,28.138698 -1.402791,42.409185c-0.395371,20.39788 0.424722,41.997412 2.432656,64.20813c0.639673,7.104598 1.394159,14.201427 2.252235,21.280991c3.13621,26.123858 19.026166,42.410912 45.945946,47.104435c7.096829,1.22755 14.039135,2.060592 20.634412,2.471502c9.178139,0.574929 13.41759,5.149323 14.185888,15.292583c0.801965,10.718188 1.999301,21.350051 3.552299,31.588269c1.918155,12.632027 5.642242,17.78912 12.859064,17.78912c3.69042,0 8.285533,-1.372577 14.902391,-4.444043c15.884777,-7.354942 27.706206,-19.532897 39.140897,-31.305121c6.822313,-7.020862 13.871663,-14.289479 21.681542,-20.390974c6.346659,-4.951637 11.563316,-7.070931 18.017882,-7.329045c29.292871,-1.123096 58.589195,-2.480135 87.869981,-3.835447l41.680597,-1.905206c28.465009,-1.261217 47.242556,-16.228352 51.506179,-41.04524c7.594928,-44.25569 6.479601,-92.380494 -3.441802,-147.114388z" clip-rule="evenodd"/>
   <path fill="#000000" stroke="null" id="svg_3" fill-rule="evenodd" d="m174.695269,152.553865l14.168623,1.527963c6.714406,0.712186 13.429676,1.423509 20.153578,2.213389c1.398475,0.154523 2.733069,0.239985 3.98997,0.239985c4.861859,0 8.42279,-1.209422 10.88566,-3.706822c2.638974,-2.677821 3.887242,-6.685056 3.814729,-12.263417c-0.077693,-7.114094 2.805583,-13.396009 5.938339,-19.128893c3.895875,-7.234087 8.01965,-13.712824 15.661193,-13.712824c1.742051,0 3.65589,0.342713 5.681089,1.012599c10.006865,3.398639 13.537583,12.382546 9.928309,25.31585c-5.105297,18.415844 -16.455389,35.329621 -34.708077,51.703864c-16.120445,14.614927 -22.745073,29.366248 -20.861448,46.331821c-0.163155,20.09833 0.719956,30.627465 6.174008,36.128133c3.651574,3.682651 9.251516,5.18299 19.322263,5.18299c4.131544,0 8.937291,-0.239122 14.472489,-0.625861c0.978069,0 1.960455,0 2.844429,-0.077693c18.68259,-1.252585 23.076564,-5.921074 22.354881,-23.796519c-0.394508,-10.349578 2.781411,-18.029968 10.280518,-24.895444c11.705753,-10.838181 23.084333,-21.51407 33.640229,-32.866752c31.254189,-33.262123 32.746759,-79.208069 3.794011,-117.044586c-14.134093,-18.484904 -43.252586,-30.421147 -74.175285,-30.421147c-16.966436,0 -32.073419,3.647257 -43.680762,10.563666c-27.126098,16.159292 -41.34997,42.220995 -44.757242,82.040412c-0.775204,9.173823 4.721148,15.112162 15.078495,16.279285zm56.054675,83.44752l-0.0423,-6.092862c-2.390356,-10.564529 3.518632,-18.913942 13.819868,-28.963107c16.293097,-15.935709 33.789572,-35.802686 40.04559,-62.327958c4.652951,-19.643394 0.961667,-33.004009 -11.988902,-43.310425c-6.740304,-5.321111 -14.158264,-8.023966 -22.045836,-8.023966c-4.801431,0 -9.911044,0.995334 -15.193308,2.968738c-14.073665,5.21752 -18.991635,17.729555 -23.745587,29.829816c-0.669024,1.690256 -1.334594,3.390007 -2.020883,5.054365c-2.402442,5.801081 -4.071979,9.09613 -10.417775,9.319713l-1.918155,0.025898c-6.950939,0 -11.147227,-1.261217 -13.216452,-3.973568c-2.119294,-2.780548 -2.209073,-7.337677 -0.283148,-14.349044c9.277414,-33.647998 30.001604,-50.751693 61.602823,-50.828522l1.905206,0c21.677225,0 43.894849,2.686453 59.538777,22.166692c21.874911,27.082935 20.055167,65.280294 -4.316281,90.826633c-6.093725,6.384643 -12.734755,12.392042 -19.153928,18.201756l-6.950939,6.324215c-11.824883,10.950404 -24.05377,22.278052 -23.478841,41.114301c0.102727,2.874643 -0.493783,4.968039 -1.828377,6.393275c-2.016566,2.162457 -5.599079,2.712351 -11.082483,2.874643c-3.390007,0 -5.762235,-0.755349 -7.251352,-2.308347c-1.488254,-1.552998 -2.140875,-3.939038 -1.999301,-7.303147c0.052659,-2.349783 0.03971,-4.676259 0.021581,-7.619099z" clip-rule="evenodd"/>
   <path fill="#000000" stroke="null" id="svg_4" fill-rule="evenodd" d="m248.204983,276.419901c-23.667894,0 -44.494812,19.600231 -44.576821,41.955976c0,21.205024 19.179825,41.706495 39.470661,42.177833l0.59651,0.008633c21.359547,0 39.471524,-21.685858 39.556987,-47.360823c0,-23.376977 -12.777054,-36.781618 -35.047337,-36.781618zm-4.590796,62.619738c-9.482869,0 -17.927241,-9.044335 -18.441741,-19.736626c-0.231353,-5.629293 1.244815,-10.203688 4.389658,-13.603191c4.132407,-4.46994 11.057448,-6.907776 20.592112,-7.259984l0.999651,-0.017265c7.430909,0 10.413459,4.146219 10.636179,14.795347c0.2279,14.013237 -7.504286,25.349517 -18.175858,25.821718z" clip-rule="evenodd"/>
  </g>
 </g>
</svg>