<svg width="51.99999999999999" height="51.99999999999999" xmlns="http://www.w3.org/2000/svg">

 <g>
  <title>background</title>
  <rect fill="none" id="canvas_background" height="402" width="582" y="-1" x="-1"/>
 </g>
 <g>
  <title>Layer 1</title>
  <g stroke="null" id="svg_8">
   <path stroke="null" fill="#000000" id="svg_3" d="m16.644184,27.387016c5.62877,-0.006828 11.833274,-0.732367 17.403692,0.093324c6.227619,0.923109 4.263964,12.90071 4.149364,17.623681c0.299833,-0.299833 0.599665,-0.599665 0.899498,-0.899498c-6.550479,0.865581 -13.661437,0.11185 -20.267357,0.080227c-1.373505,-0.00658 -4.01595,0.608772 -4.941082,-0.725915c-0.445631,-0.642921 -0.020501,-3.397199 -0.022747,-4.070272c-0.010986,-3.290067 -1.015609,-10.281268 2.599461,-11.771956c1.055435,-0.435213 0.592981,-2.176465 -0.478245,-1.734736c-2.686804,1.107917 -3.544125,3.254415 -3.833812,6.022134c-0.309819,2.959988 -0.093444,6.056235 -0.078116,9.029967c0.005693,1.105167 -0.49745,3.422345 0.159439,4.382058c0.344352,0.503087 0.617599,0.405654 1.119239,0.641498c1.911989,0.898922 6.406136,0.030671 8.604924,0.041193c5.613834,0.026881 11.572787,0.640227 17.138296,-0.095203c0.492101,-0.065028 0.886401,-0.359735 0.899498,-0.899498c0.107756,-4.441129 0.245983,-8.914951 -0.205181,-13.342983c-0.209947,-2.060682 -0.469466,-3.818196 -2.271476,-5.038251c-2.019521,-1.367325 -4.687367,-1.151517 -6.995215,-1.151605c-4.626713,-0.000176 -9.253466,0.011226 -13.880179,0.016839c-1.157506,0.001399 -1.159545,1.800395 0,1.798996l0,0z" class="st0"/>
   <path stroke="null" fill="#000000" id="svg_5" d="m30.985258,11.61351c0.643673,2.713125 -0.820846,6.213027 -2.525086,8.526696c-3.269343,4.438466 -7.491722,-0.444024 -8.38946,-4.00877c-0.968203,-3.844542 -0.243992,-8.233979 4.543855,-8.743407c2.478192,-0.263685 6.910006,2.054709 6.953798,5.039786c0.016975,1.156586 1.816018,1.159968 1.798996,0c-0.036356,-2.477809 -1.516465,-3.438153 -3.292338,-5.002879c-1.943907,-1.712796 -3.290659,-2.13899 -5.988537,-1.765095c-5.372833,0.744608 -6.77445,5.009803 -5.97253,9.779988c0.650421,3.868968 3.809433,9.780372 8.715095,8.221866c2.321536,-0.737548 3.466297,-3.004491 4.464644,-5.021181c1.370659,-2.768774 2.176609,-4.342648 1.4263,-7.50525c-0.267139,-1.125987 -2.002234,-0.649286 -1.734736,0.478245l0,0z" class="st0"/>
   <path stroke="null" fill="#000000" id="svg_7" d="m31.575697,14.503409c-2.1498,0.377237 -2.795383,-1.287073 -3.749139,-2.558348c-0.187927,-0.2505 -0.21572,-0.514641 -0.496795,-0.727786c-0.794365,-0.602376 -2.108103,-0.373344 -3.024671,-0.328561c-2.181662,0.106612 -4.769985,-0.078132 -5.619975,2.291952c-0.391525,1.091719 1.346136,1.561792 1.734736,0.478245c0.407724,-1.136909 3.78755,-1.084395 4.769705,-1.006262c1.346368,0.107108 1.257658,0.930904 2.066694,1.836351c1.246032,1.394509 2.981112,2.06791 4.79769,1.749144c1.138261,-0.199744 0.655818,-1.933744 -0.478245,-1.734736l0,0z" class="st0"/>
  </g>
 </g>
</svg>